<?xml version="1.0" encoding="UTF-8"?>
<!DOCTYPE svg PUBLIC "-//W3C//DTD SVG 1.1//EN" "http://www.w3.org/Graphics/SVG/1.1/DTD/svg11.dtd">
<svg version="1.1" xmlns="http://www.w3.org/2000/svg" xmlns:xlink="http://www.w3.org/1999/xlink" x="0" y="0" width="464" height="454" viewBox="0, 0, 464, 454">
  <g id="Layer_1">
    <path d="M147.069,158.295 C160.782,235.805 106.146,305.111 6.665,369.039 C-19.217,385.402 36.656,465.437 65.384,451.011 C146.517,374.914 225.323,324.203 296.725,354.474 C319.969,311.4 343.212,268.328 366.454,225.256 C302.59,196.308 238.725,167.359 174.858,138.41 C165.597,145.039 156.332,151.668 147.069,158.295" fill="#75AE4C"/>
    <path d="M0.391,378.795 C-4.584,405.338 40.542,463.486 65.384,451.011 C129.586,390.793 192.329,346.486 251.102,345.609 L251.114,345.597 C191.776,335.965 131.382,370.476 70.668,418.424 C50.258,431.765 27.827,427.318 0.391,378.795" fill="#5B9241"/>
    <path d="M167.432,157.812 C172.905,206.211 161.8,255.397 127.48,305.681 C165.811,259.504 193.289,214.448 210.509,170.455 C221.949,177.71 233.392,184.966 244.833,192.221 C226.607,230.263 197.666,266 156.536,299.115 C198.827,272.861 236.475,244.298 267.156,212.267 C277.507,221.008 287.857,229.749 298.207,238.489 C259.518,252.46 224.656,273.894 190.988,297.654 C230.962,279.509 272.033,266.078 314.063,256.759 C316.847,273.461 319.631,290.164 322.416,306.867 C280.683,297.154 235.698,309.507 189.825,327.894 C246.341,313.248 301.214,311.613 342.667,331.713 C335.502,286.134 328.576,228.163 321.411,182.587 C282.932,168.974 244.451,155.361 205.974,141.748 C193.126,147.104 180.278,152.457 167.432,157.812" fill="#90C564"/>
    <path d="M338.983,45.273 C340.125,47.497 340.94,49.801 341.451,52.134 C354.229,49.75 367.58,55.873 373.815,68.03 C376.059,72.404 377.129,77.068 377.146,81.67 C383.494,82.172 389.442,85.853 392.562,91.936 C394.497,95.708 395.048,99.827 394.399,103.711 C399.848,105.383 404.644,109.168 407.45,114.64 C408.271,116.241 408.874,117.895 409.273,119.57 C416.954,119.32 424.457,123.417 428.197,130.71 C431.077,136.323 431.115,142.643 428.846,148.035 C433.942,149.48 438.45,152.954 441.06,158.04 C446.046,167.761 442.206,179.685 432.485,184.67 C427.619,187.167 422.201,187.45 417.377,185.894 C415.892,193.173 411.234,199.739 404.108,203.394 C391.653,209.782 376.377,204.865 369.988,192.41 C366.24,185.101 366.386,176.822 369.661,169.938 C368.804,169.004 368.008,167.997 367.289,166.917 C354.605,169.775 341.113,163.849 334.904,151.746 C333.072,148.173 332.047,144.398 331.763,140.631 C319.598,140.449 307.928,133.728 301.987,122.145 C295.648,109.788 297.61,95.359 305.82,85.217 C298.691,83.097 292.407,78.182 288.745,71.041 C281.629,57.167 287.107,40.154 300.98,33.037 C314.853,25.922 331.867,31.399 338.983,45.273" fill="#3C6834"/>
    <path d="M328.58,68.788 C330.066,71.686 330.693,74.801 330.553,77.837 C331.411,76.955 332.426,76.196 333.582,75.603 C339.303,72.668 346.32,74.927 349.254,80.649 C351.435,84.896 350.749,89.859 347.908,93.334 C348.715,94.155 349.425,95.093 350.011,96.14 C350.191,96.038 350.376,95.938 350.563,95.841 C356.42,92.837 363.354,94.164 367.718,98.643 C367.903,98.536 368.091,98.43 368.283,98.332 C373.549,95.63 380.007,97.71 382.708,102.975 C384.654,106.771 384.117,111.184 381.694,114.364 C383.186,115.641 384.457,117.221 385.408,119.075 C386.413,121.037 386.962,123.111 387.095,125.177 C391.764,124.101 396.743,126.275 399.029,130.731 C401.384,135.322 400.106,140.816 396.254,143.94 C398.765,145.346 400.904,147.482 402.317,150.236 C406.134,157.679 403.196,166.808 395.753,170.624 C388.31,174.443 379.182,171.504 375.365,164.062 C374.885,163.125 374.512,162.164 374.241,161.19 C370.176,161.147 366.248,159.237 363.729,155.867 C363.114,156.283 362.467,156.665 361.79,157.013 C352.574,161.739 341.273,158.099 336.547,148.885 C334.346,144.592 333.959,139.848 335.105,135.526 C333.54,134.316 332.209,132.752 331.247,130.876 C328.488,125.495 329.573,119.156 333.494,114.992 C330.614,113.843 328.122,111.689 326.595,108.713 C326.188,107.916 325.866,107.098 325.63,106.269 C320.28,107.756 314.441,105.338 311.809,100.202 C310.941,98.512 310.516,96.712 310.49,94.933 C304.706,94.266 299.351,90.815 296.494,85.246 C291.949,76.385 295.447,65.517 304.309,60.973 C313.168,56.428 324.036,59.927 328.58,68.788" fill="#4B7F3D"/>
    <path d="M275.39,48.163 C283.423,63.824 277.238,83.031 261.578,91.064 C248.925,97.554 233.958,94.762 224.438,85.192 C221.809,88.374 218.503,91.085 214.597,93.089 C208.999,95.96 202.938,96.983 197.113,96.382 C200.068,106.996 196.469,118.427 188.001,125.44 C190.716,127.687 193.03,130.51 194.741,133.843 C201.493,147.008 196.295,163.154 183.131,169.905 C169.968,176.658 153.822,171.46 147.069,158.295 C143.903,152.124 143.367,145.295 145.043,139.089 C133.733,140.24 122.355,134.497 116.854,123.771 C109.762,109.942 115.092,93.018 128.744,85.72 C123.876,82.448 119.744,77.932 116.879,72.344 C107.84,54.726 114.798,33.115 132.417,24.077 C139.788,20.297 147.855,19.317 155.41,20.743 C158.123,14.641 162.86,9.389 169.265,6.104 C179.946,0.625 192.361,2.1 201.347,8.865 C202.799,7.67 204.4,6.61 206.142,5.716 C219.204,-0.984 235.226,4.174 241.927,17.237 C244.173,21.617 245.085,26.328 244.813,30.91 C257.149,30.054 269.389,36.464 275.39,48.163" fill="#3C6834"/>
    <path d="M434.629,231.739 C439.771,241.763 437.213,253.702 429.133,260.824 C432.253,263.381 434.912,266.605 436.871,270.424 C440.519,277.537 441.079,285.42 439.049,292.547 C448.001,291.613 457.014,296.15 461.368,304.64 C467.029,315.677 462.671,329.215 451.634,334.877 C449.266,336.091 446.781,336.843 444.284,337.17 C445.241,348.89 439.679,360.58 429.262,367.068 C429.88,368.009 430.455,368.992 430.982,370.017 C438.877,385.41 432.799,404.287 417.407,412.183 C405.014,418.539 390.361,415.834 381.001,406.506 C379.458,407.771 377.76,408.896 375.911,409.843 C361.938,417.013 344.799,411.494 337.631,397.519 C336.593,395.496 335.821,393.404 335.303,391.287 C321.364,393.025 307.202,386.058 300.421,372.834 C292.197,356.802 297.772,337.332 312.782,327.959 L312.687,327.779 C300.241,303.515 309.822,273.754 334.088,261.308 C351.368,252.445 371.436,254.756 386.052,265.586 C388.347,262.648 391.215,260.097 394.6,258.116 C393.507,256.793 392.539,255.335 391.725,253.745 C385.646,241.898 390.325,227.367 402.174,221.29 C414.021,215.213 428.552,219.891 434.629,231.739" fill="#3C6834"/>
    <path d="M425.083,262.341 C428.821,269.634 425.943,278.576 418.652,282.316 C416.664,283.336 414.553,283.861 412.458,283.941 C417.619,285.787 422.117,289.523 424.817,294.785 C428.894,302.734 427.75,311.984 422.646,318.625 C424.879,320.06 426.774,322.082 428.073,324.613 C431.994,332.257 428.976,341.634 421.33,345.556 C419.958,346.261 418.53,346.738 417.09,347.009 C416.437,352.392 413.211,357.363 408.023,360.023 C403.567,362.308 398.571,362.424 394.24,360.757 C392.701,362.496 390.82,363.984 388.629,365.107 C386.491,366.205 384.242,366.859 381.987,367.109 C382.473,367.726 382.907,368.4 383.279,369.127 C386.421,375.252 384.002,382.765 377.877,385.908 C371.75,389.05 364.236,386.631 361.094,380.506 C359.981,378.338 359.566,375.996 359.766,373.736 C349.401,376.943 337.921,372.351 332.799,362.365 C327.058,351.175 331.477,337.451 342.667,331.713 C345.668,330.172 348.853,329.365 352.017,329.22 C351.554,319.769 356.537,310.47 365.507,305.869 C366.033,305.599 366.564,305.351 367.102,305.121 C362.85,293.56 367.797,280.379 379.036,274.613 C384.995,271.556 391.615,271.154 397.552,272.97 C395.766,266.355 398.768,259.166 405.109,255.912 C412.4,252.173 421.342,255.052 425.083,262.341" fill="#4B7F3D"/>
    <path d="M249.435,63.931 C255.577,75.909 250.849,90.599 238.871,96.742 C228.938,101.836 217.143,99.455 209.899,91.666 C207.521,95.491 204.107,98.74 199.808,100.946 C192.997,104.439 185.356,104.597 178.744,102.027 C182.444,109.639 180.504,118.586 174.48,124.031 C176.742,125.37 178.666,127.342 179.953,129.854 C183.59,136.942 180.79,145.633 173.702,149.269 C166.613,152.904 157.921,150.106 154.286,143.019 C151.678,137.934 152.382,132.023 155.604,127.746 C151.315,126.198 147.579,123.084 145.335,118.708 C141.642,111.505 143.078,103.024 148.305,97.432 C144.995,95.684 142.17,92.939 140.332,89.356 C135.569,80.07 139.236,68.681 148.521,63.918 C151.285,62.501 154.233,61.831 157.139,61.833 C156.34,53.962 160.337,46.046 167.801,42.217 C174.88,38.587 183.126,39.634 189.013,44.224 C189.836,38.887 193.12,34.005 198.293,31.353 C206.863,26.956 217.376,30.341 221.773,38.911 C223.782,42.828 224.164,47.151 223.173,51.108 C233.531,49.126 244.377,54.072 249.435,63.931" fill="#4B7F3D"/>
    <path d="M375.229,282.515 C381.371,304.652 371.366,328.8 350.122,339.697 C325.818,352.162 296.011,342.566 283.547,318.263 C277.16,305.814 276.566,291.924 280.77,279.656 C273.562,275.131 267.437,268.666 263.27,260.543 C259.101,252.413 257.425,243.663 257.956,235.162 C242.246,238.325 225.812,232.028 216.321,218.741 C200.202,221.403 183.528,213.568 175.671,198.25 C167.224,181.78 171.75,162.078 185.495,150.792 C181.153,147.667 177.468,143.498 174.858,138.41 C166.066,121.266 172.836,100.24 189.979,91.446 C196.633,88.034 203.869,86.967 210.75,87.938 C213.491,81.859 218.232,76.634 224.626,73.353 C234.397,68.34 245.615,69.114 254.367,74.415 C257.142,68.57 261.789,63.556 267.991,60.374 C282.978,52.686 301.36,58.604 309.047,73.591 C311.328,78.04 312.41,82.786 312.414,87.464 C322.891,87.466 332.994,93.191 338.104,103.154 C341.762,110.283 342.162,118.224 339.855,125.282 C347.486,129.094 354.08,135.142 358.543,143.079 C372.01,138.604 387.098,144.489 393.775,157.507 C399.355,168.385 397.462,181.126 389.985,189.878 C398.756,194.448 406.244,201.685 411.101,211.151 C423.565,235.454 413.969,265.261 389.666,277.728 C385.002,280.119 380.136,281.695 375.229,282.515" fill="#5B9241"/>
    <path d="M323.216,126.869 C324.494,128.483 325.635,130.209 326.623,132.032 C334.699,133.066 342.135,137.938 346.117,145.702 C347.307,148.02 348.122,150.476 348.558,152.989 C353.381,155.914 357.398,160.1 360.135,165.198 C368.851,166.767 376.647,172.282 380.896,180.566 C387.005,192.475 384.105,206.638 374.702,215.272 C378.723,228.784 374.077,243.481 363.063,252.233 C364.796,264.666 358.646,277.384 346.848,283.435 C331.938,291.082 313.64,285.191 305.992,270.281 C303.772,265.951 302.65,261.224 302.644,256.48 C299.316,253.727 296.552,250.306 294.539,246.383 C291.344,240.153 290.317,233.177 291.423,226.485 C284.471,224.907 278.078,221.43 272.979,216.449 C256.15,222.747 236.894,215.57 228.493,199.195 C223.373,189.208 223.29,177.606 227.851,167.737 C225.83,162.567 225.082,157.039 225.604,151.602 C222.968,149.28 220.757,146.46 219.113,143.256 C211.961,129.313 217.47,112.201 231.414,105.051 C236.694,102.341 242.597,101.392 248.313,102.196 C249.198,101.622 250.116,101.091 251.061,100.606 C258.164,96.961 266.209,96.269 273.585,98.323 C275.296,96.902 277.169,95.662 279.176,94.634 C294.175,86.94 312.579,92.866 320.273,107.864 C323.323,113.811 324.294,120.476 323.216,126.869" fill="#75AE4C"/>
    <path d="M264.263,149.535 C261.05,148.69 258.194,146.535 256.558,143.346 C253.505,137.393 255.855,130.092 261.809,127.039 C265.382,125.207 269.438,125.32 272.773,126.991 C273.942,125.622 275.391,124.453 277.092,123.581 C282.354,120.882 288.512,121.784 292.759,125.381 C294.007,122.696 296.125,120.39 298.965,118.935 C305.738,115.46 314.047,118.135 317.521,124.909 C319.707,129.17 319.459,134.037 317.288,137.927 C319.524,139.527 321.423,141.669 322.765,144.284 C323.701,146.108 324.29,148.019 324.56,149.94 C329.373,147.632 335.177,149.567 337.628,154.345 C338.905,156.836 339.023,159.615 338.181,162.069 C342.571,162.878 346.552,165.643 348.748,169.924 C349.58,171.547 350.086,173.254 350.29,174.966 C355.891,173.538 361.935,176.106 364.685,181.467 C367.878,187.694 365.42,195.33 359.192,198.524 C357.885,199.195 356.512,199.615 355.133,199.805 C356.253,200.971 357.226,202.318 358.001,203.829 C362.283,212.177 358.987,222.416 350.64,226.696 C349.575,227.244 348.478,227.666 347.368,227.971 C347.758,228.516 348.113,229.096 348.429,229.71 C351.867,236.415 349.221,244.639 342.514,248.078 C335.809,251.519 327.585,248.87 324.146,242.165 C322.275,238.518 322.205,234.421 323.61,230.891 C320.112,229.656 317.062,227.134 315.235,223.573 C312.809,218.843 313.132,213.429 315.617,209.148 C314.662,208.028 313.819,206.779 313.119,205.411 C312.771,204.736 312.468,204.047 312.208,203.351 C304.365,203.989 296.546,199.951 292.732,192.515 C292.578,192.216 292.433,191.912 292.296,191.61 C291.062,192.796 289.637,193.825 288.035,194.648 C279.209,199.176 268.383,195.691 263.856,186.862 C260.49,180.302 261.553,172.638 265.945,167.276 C265.411,166.546 264.928,165.765 264.502,164.936 C261.934,159.928 262.027,154.257 264.263,149.535" fill="#90C564"/>
    <path d="M413.411,301.447 C415.665,305.841 415.213,310.912 412.666,314.757 C413.296,315.488 413.851,316.302 414.31,317.197 C417.206,322.843 415.338,329.677 410.183,333.117 C412.998,339.332 410.462,346.73 404.323,349.879 C401.606,351.273 398.623,351.607 395.849,351.033 C394.887,354.414 392.582,357.4 389.209,359.131 C383.993,361.804 377.824,360.656 373.901,356.711 C373.227,359.451 371.411,361.896 368.703,363.285 C363.742,365.832 357.656,363.871 355.111,358.908 C352.566,353.947 354.525,347.863 359.487,345.316 C363.029,343.5 367.144,343.98 370.136,346.209 C370.544,341.925 373.048,337.931 377.14,335.797 C376.901,335.424 376.679,335.037 376.474,334.636 C372.967,327.8 375.666,319.418 382.501,315.912 C385.064,314.597 387.845,314.154 390.505,314.476 C390.305,314.156 390.117,313.826 389.941,313.484 C386.617,307.004 389.177,299.056 395.658,295.732 C402.138,292.408 410.087,294.966 413.411,301.447" fill="#5B9241"/>
    <path d="M213.472,55.225 C215.965,60.087 214.046,66.047 209.185,68.541 C207.689,69.306 206.092,69.655 204.522,69.63 C204.664,74.342 202.146,78.941 197.674,81.235 C194.542,82.84 191.055,83.009 187.959,81.985 C186.721,84.363 184.761,86.395 182.194,87.711 C179.678,89.002 176.945,89.419 174.338,89.074 C175.479,94.289 173.034,99.82 168.06,102.372 C162.135,105.41 154.871,103.07 151.832,97.146 C150.272,94.104 150.131,90.707 151.164,87.711 C148.993,83.216 150.796,77.787 155.261,75.497 C157.665,74.263 160.359,74.189 162.706,75.067 C162.844,72.552 163.69,70.115 165.146,68.054 C164.255,67.172 163.488,66.137 162.884,64.962 C159.82,58.987 162.178,51.659 168.154,48.594 C174.126,45.53 181.454,47.889 184.519,53.864 C185.359,55.503 185.79,57.242 185.852,58.967 C185.956,58.911 186.061,58.855 186.166,58.801 C188.994,57.35 192.114,57.073 194.975,57.787 C195.55,54.938 197.369,52.367 200.155,50.938 C205.018,48.446 210.979,50.364 213.472,55.225" fill="#5B9241"/>
  </g>
</svg>
