<?xml version="1.0" encoding="UTF-8"?>
<!DOCTYPE svg PUBLIC "-//W3C//DTD SVG 1.1//EN" "http://www.w3.org/Graphics/SVG/1.1/DTD/svg11.dtd">
<svg version="1.1" xmlns="http://www.w3.org/2000/svg" xmlns:xlink="http://www.w3.org/1999/xlink" x="0" y="0" width="993" height="1154" viewBox="0, 0, 993, 1154">
  <defs>
    <clipPath id="Clip_1">
      <path d="M0.06,0.6 L992.095,0.6 L992.095,1154 L0.06,1154 z"/>
    </clipPath>
  </defs>
  <g id="Layer_1">
    <g clip-path="url(#Clip_1)">
      <path d="M285.808,808.616 C285.285,811.551 285.057,814.538 284.648,817.952 C277.238,815.774 270.021,813.078 262.403,811.727 C245.799,808.781 229.936,810.474 215.016,818.544 C212.325,820 211.633,819.554 210.601,816.838 C205.761,804.101 198.012,793.418 186.89,785.435 C179.19,779.908 170.87,777.289 161.682,781.921 C160.169,782.684 159.407,782.533 158.619,780.923 C156.89,777.393 154.931,773.974 152.777,769.973 C161.642,770.258 169.915,770.319 178.084,768.811 C179.331,768.581 179.964,768.974 180.314,770.098 C185.298,786.126 198.449,790.289 212.885,791.874 C227.656,793.496 242.484,793.842 256.546,787.66 C258.752,786.691 259.531,787.902 260.629,789.157 C266.785,796.192 274.207,801.392 283.123,804.291 C285.441,805.045 286.235,806.217 285.808,808.616 z M988.325,357.468 C984.198,348.833 978.921,340.994 972.899,333.642 C952.813,309.121 928.623,289.001 903.763,269.633 C901.277,267.696 900.166,265.825 900.238,262.612 C900.759,239.261 899.395,216.009 895.872,192.908 C891.078,161.484 883.045,131.023 867.735,102.921 C851.483,73.088 829.038,49.673 796.823,37.007 C722.526,7.797 645.498,-3.49 565.904,1.902 C519.167,5.068 473.968,15.07 429.206,28.849 C377.667,44.715 344.556,78.32 325.837,127.704 C308.94,172.283 303.874,218.684 304.661,265.983 C304.722,269.595 305.663,273.29 304.226,276.825 C295.871,297.369 293.308,319.016 293.132,340.876 C292.986,359.072 292.339,377.848 308.028,391.838 C299.625,394.087 291.841,397.024 285.099,402.095 C267.966,414.983 263.546,432.565 267.132,452.737 C270.43,471.283 282.111,482.143 299.862,487.163 C310.354,490.131 321.152,490.99 331.921,491.772 C335.75,492.05 336.432,493.686 337.003,496.81 C342.875,528.936 350.972,560.482 363.219,590.803 C383.207,640.287 410.941,683.773 458.633,711.38 C460.906,712.695 460.061,713.785 458.981,715.246 C446.216,732.521 433.436,749.786 420.777,767.139 C419.165,769.348 418.178,768.826 416.534,767.368 C413.921,765.049 411.174,762.868 408.377,760.772 C389.355,746.514 368.635,738.61 344.465,743.984 C342.121,744.505 340.822,743.684 339.543,741.793 C332.163,730.875 325.325,719.638 320.601,707.301 C310.324,680.464 307.592,653.145 316.117,625.254 C317.29,621.418 318.053,617.524 318.494,613.54 C319.968,600.246 309.287,589.618 296.041,591.702 C279.403,594.32 267.182,603.355 260.118,618.664 C254.092,631.722 252.691,645.519 255.673,659.629 C256.262,662.414 255.943,664.229 253.459,665.929 C248.945,669.018 245.896,673.407 244.016,678.511 C243.266,680.546 242.228,681.34 240.019,681.291 C235.108,681.183 230.627,682.854 227.673,686.751 C225.245,689.954 223.768,688.85 221.539,686.821 C212.809,678.872 202.939,672.827 191.468,669.682 C179.665,666.445 168.537,667.338 159.51,676.476 C157.013,679.004 155.947,678.54 153.697,676.616 C141.216,665.946 127.08,659.809 110.263,661.087 C97.695,662.042 89.532,669.223 88.259,681.468 C86.77,695.802 90.627,708.233 102.75,717.11 C106.91,720.156 111.175,723.085 115.577,725.763 C122.397,729.911 122.386,729.784 120.782,737.414 C120.358,739.434 119.932,740.123 117.594,739.712 C99.623,736.552 88.297,742.25 80.852,758.441 C79.244,761.938 78.152,761.734 75.383,759.791 C61.817,750.271 46.566,746.241 30.119,747.123 C12.018,748.094 -0.014,761.09 0,779.132 C0.016,799.96 12.139,815.32 33.813,821.964 C41.717,824.387 49.898,825.427 58.459,826.474 C57.856,827.623 57.533,828.365 57.103,829.039 C49.097,841.589 50.785,865.575 68.921,873.107 C70.286,873.674 71.039,874.387 70.942,876.063 C70.819,878.193 69.61,878.676 67.827,879.221 C54.382,883.323 44.487,891.955 37.962,904.175 C28.174,922.507 26.125,941.128 37.865,959.559 C41.732,965.628 46.283,966.525 52.218,962.593 C60.405,957.17 68.482,951.58 76.569,946.008 C93.706,934.201 110.906,922.503 130.245,914.447 C144.918,908.336 160.094,905.391 176.052,906.961 C178.086,907.161 178.879,907.84 179.502,909.614 C187.135,931.369 203.025,945.107 223.542,953.924 C241.267,961.542 259.637,967.51 277.831,973.906 C280.301,974.775 281.449,975.945 282.162,978.574 C285.126,989.493 288.796,1000.217 293.862,1010.35 C297.028,1016.68 300.207,1022.68 295.363,1029.52 C295.011,1030.02 295.035,1030.8 294.942,1031.46 C291.432,1056.14 298.593,1078.05 314.979,1096.01 C332.769,1115.52 356.168,1126.05 381.948,1131.03 C393.071,1133.18 405.147,1134.31 414.318,1127.3 C422.33,1121.18 428.994,1122.37 436.822,1125.14 C438.072,1125.58 439.372,1125.96 440.68,1126.15 C443.393,1126.53 444.05,1128.06 443.828,1130.63 C443.397,1135.6 442.984,1140.59 443.021,1145.57 C443.056,1150.22 446.019,1152.95 450.401,1153.68 C454.671,1154.39 457.788,1152.28 459.695,1148.47 C460.206,1147.45 460.425,1146.28 460.777,1145.18 C462.844,1143.18 462.304,1140.56 462.427,1138.12 C462.665,1133.41 463.072,1133.06 467.861,1133.7 C468.851,1133.84 469.832,1134.03 470.816,1134.2 C491.834,1137.9 513.073,1139.69 534.35,1140.37 C554.793,1141.03 575.247,1140.5 595.676,1138.67 C622.461,1136.27 648.821,1131.84 674.591,1124.13 C678.469,1122.97 682.041,1122.94 685.778,1124.37 C701.321,1130.33 717.194,1131.39 733.323,1127.17 C737.043,1126.2 738.57,1127.47 738.932,1131.11 C739.164,1133.43 739.388,1135.74 739.462,1138.07 C739.542,1140.6 739.901,1143.05 741.625,1145.08 C743.088,1151.45 746.702,1154.62 751.67,1153.9 C756.868,1153.14 759.471,1149.28 759.04,1142.8 C758.643,1136.82 758.312,1130.83 757.62,1124.88 C757.333,1122.41 757.942,1121.48 760.274,1120.57 C799.11,1105.3 834.431,1083.83 867.941,1059.22 C889.371,1043.48 898.919,1021.61 900.021,995.592 C901.105,970.008 895.037,945.729 886.195,922.015 C870.572,880.114 847.851,841.992 823.31,804.882 C802.088,772.792 779.017,742.002 756.585,710.764 C755.124,708.73 753.922,707.472 756.893,705.354 C789.092,682.403 811.123,651.278 827.919,616.068 C846.095,577.965 856.987,537.59 864.694,496.266 C865.249,493.288 866.11,492.121 869.288,491.868 C877.739,491.196 886.225,490.448 894.566,488.983 C911.964,485.928 927.029,478.871 933.095,460.714 C939.496,441.555 938.007,423.311 923.781,407.526 C923.525,407.242 923.55,406.706 923.611,406.945 C929.929,406.945 936.253,407.149 942.559,406.902 C954.729,406.425 966.891,405.615 977.828,399.373 C985.095,395.226 990.614,389.35 991.69,380.867 C992.697,372.922 991.919,364.991 988.325,357.468" fill="#5F3900"/>
    </g>
    <path d="M74.99,473.487 C75.071,466.393 78.68,461.6 85.516,459.643 C93.348,457.401 101.181,455.159 109.05,453.052 C111.559,452.38 112.812,451.224 113.36,448.48 C115.414,438.211 117.826,428.013 120.09,417.786 C121.68,410.605 127.146,406.249 134.775,406.114 C142.757,405.972 148.438,410.142 150.107,417.477 C152.431,427.692 154.807,437.898 156.904,448.16 C157.487,451.015 158.744,452.398 161.514,453.122 C169.394,455.18 177.227,457.426 185.051,459.691 C192.045,461.716 195.519,466.682 195.378,474.205 C195.243,481.4 191.551,486.257 184.874,488.115 C177.187,490.255 169.553,492.599 161.814,494.524 C158.781,495.279 157.49,496.682 156.871,499.736 C154.76,510.165 152.33,520.529 149.997,530.913 C148.561,537.303 142.997,541.36 135.557,541.495 C127.853,541.635 121.951,537.738 120.423,531.159 C118.054,520.955 115.748,510.732 113.716,500.457 C113.013,496.903 111.412,495.115 107.888,494.25 C100.467,492.429 93.131,490.251 85.78,488.152 C78.42,486.052 74.901,481.215 74.99,473.487" fill="#FFCE00"/>
    <path d="M460.777,1145.18 C460.898,1140.87 459.45,1135.4 461.553,1132.56 C463.972,1129.3 469.325,1132.49 473.307,1133.1 C521.13,1140.43 569.034,1140.81 616.989,1134.82 C637.291,1132.29 657.264,1127.99 676.827,1121.92 C678.56,1121.38 680.158,1120.68 682.107,1121.49 C700.911,1129.28 720.058,1130.59 739.893,1123.78 C740.498,1131.21 741.062,1138.15 741.625,1145.08 C698.816,1145.11 656.006,1145.15 613.196,1145.16 C562.39,1145.18 511.584,1145.18 460.777,1145.18" fill="#FFCC00"/>
    <path d="M483.772,251.977 C482.089,253.806 480.065,255.428 478.798,257.51 C476.761,260.86 477.014,264.36 480.35,266.834 C483.368,269.072 486.564,268.903 489.412,266.22 C490.864,264.853 492.163,263.286 493.754,262.111 C500.089,257.432 506.56,258.628 510.915,265.156 C514.255,270.161 517.771,271.482 521.567,269.157 C525.551,266.716 525.943,262.555 522.748,257.362 C520.563,253.811 517.502,251.078 513.383,247.992 C572.583,243.304 630.669,243.272 689.715,247.843 C685.491,251.483 681.964,254.479 679.782,258.677 C677.394,263.273 678.135,267.481 681.844,269.545 C685.389,271.518 689.209,270.168 691.893,265.994 C697.044,257.981 704.536,257.074 711.525,263.639 C712.25,264.319 712.798,265.191 713.534,265.856 C716.545,268.579 719.82,268.819 723.049,266.393 C726.139,264.072 726.557,260.006 724,256.62 C722.423,254.53 720.435,252.749 717.964,250.119 C725.963,250.941 733.251,251.613 740.517,252.467 C744.634,252.95 749.647,252.51 752.556,254.722 C755.536,256.988 754.761,262.399 755.714,266.408 C761.491,290.708 773.281,311.898 788.818,331.187 C789.65,332.22 790.585,333.186 791.564,334.082 C802.228,343.856 811.761,343.438 822.604,332.537 C829.101,346.395 837.056,359.211 847.484,370.368 C849.872,372.922 852.114,375.732 854.904,377.763 C859.127,380.838 860.354,384.464 859.982,389.652 C855.609,450.73 847.734,511.177 827.857,569.459 C815.786,604.85 799.689,638.107 774.429,666.232 C745.221,698.752 708.819,716.393 665.127,719.33 C642.697,720.838 620.268,723.204 597.803,721.783 C568.097,719.903 538.193,718.939 509.035,712.389 C467.734,703.112 436.347,678.932 412.03,645.009 C387.922,611.377 373.496,573.398 363.104,533.726 C352.742,494.171 346.904,453.862 343.827,413.132 C342.812,399.693 342.036,386.235 341.166,372.785 C341.058,371.126 340.993,369.483 341.866,367.924 C353.637,346.908 362.839,324.47 377.761,305.198 C389.82,289.622 402.63,274.781 416.651,260.959 C418.195,259.436 419.912,258.721 421.898,258.416 C441.143,255.457 460.403,252.601 479.816,250.945 C481.232,250.918 483.026,249.441 483.772,251.977" fill="#FEF5E2"/>
    <path d="M322.182,264.373 C321.43,251.274 322.154,238.656 323.077,226.075 C325.301,195.767 330.307,165.974 340.973,137.365 C350.956,110.591 365.099,86.637 387.89,68.538 C402.397,57.017 419.509,51.068 436.677,45.191 C481.031,30.007 526.674,21.593 573.449,18.963 C647.622,14.793 719.407,25.787 788.719,52.593 C820.313,64.812 841.078,88.262 855.671,117.914 C869.274,145.557 876.074,175.12 879.879,205.486 C882.158,223.68 883.117,241.948 882.966,260.29 C882.936,263.878 882.198,264.35 878.821,263.22 C836.99,249.224 793.815,241.507 750.174,236.068 C690.764,228.662 631.111,225.583 571.28,227.374 C500.136,229.504 429.475,236.069 360.138,253.188 C347.417,256.328 334.888,260.155 322.182,264.373" fill="#FEFEFE"/>
    <path d="M302.215,984.037 C304.777,984.037 306.595,984.037 308.414,984.037 C470.854,984.037 633.294,984.037 795.735,984.037 C802.05,984.037 802.039,984.035 800.037,989.918 C795.457,1003.37 789.242,1016.02 781.58,1028 C779.882,1030.65 778.388,1031.47 775.154,1030.34 C768.167,1027.9 760.864,1027 753.526,1028.66 C742.813,1031.07 737.948,1037.34 736.407,1050.63 C731.21,1048.21 726.171,1045.75 721.043,1043.5 C716.611,1041.55 711.996,1040.13 707.104,1039.91 C693.556,1039.3 684.401,1048.04 685.227,1061.62 C685.512,1066.31 683.982,1066.28 680.413,1065.8 C669.823,1064.4 661.061,1068.5 654.079,1076.06 C647.88,1082.78 647.77,1091.88 653.123,1100.06 C654.934,1102.83 657.175,1105.32 659.589,1108.41 C649.805,1111.43 639.98,1113.26 630.145,1115.03 C595.715,1121.22 560.955,1122.21 526.137,1120.78 C494.985,1119.49 464.207,1115.27 434.22,1106.23 C430.934,1105.24 429.822,1103.99 429.984,1100.47 C430.453,1090.25 427.728,1080.67 422.66,1071.83 C413.821,1056.42 402.137,1053.12 386.357,1061.76 C385.204,1056.74 384.138,1051.83 382.934,1046.94 C381.856,1042.57 380.329,1038.35 378.118,1034.4 C371.099,1021.84 357.686,1019.22 346.471,1028.24 C345.182,1029.28 343.978,1030.42 342.447,1031.77 C337.141,1020.37 328.031,1014.58 316.018,1013.05 C314.605,1012.87 314.082,1012.01 313.538,1010.94 C309.237,1002.5 305.596,993.778 302.215,984.037" fill="#EABF6A"/>
    <path d="M720.94,908.412 C712.691,900.53 704.721,893.789 695.753,888.353 C692.337,886.283 688.936,884.169 685.406,882.307 C680.267,879.596 675.159,880.849 672.805,885.177 C670.324,889.741 671.647,894.605 676.717,897.473 C689.259,904.566 700.982,912.677 710.701,923.432 C712.82,925.776 714.884,928.174 716.892,930.614 C721.733,936.495 722.653,943.171 722.072,950.69 C720.87,966.264 721.19,966.289 705.968,966.289 C699.97,966.289 693.953,966.004 687.98,966.385 C683.732,966.657 680.668,965.131 677.836,962.272 C673.382,957.775 668.853,953.347 664.257,948.995 C659.891,944.86 654.536,944.695 650.967,948.417 C647.326,952.213 647.749,957.126 652.1,961.652 C653.238,962.836 654.367,964.03 655.495,965.215 C654.514,966.963 653.018,966.251 651.849,966.253 C621.858,966.298 591.866,966.241 561.875,966.352 C558.314,966.365 556.928,965.938 557.677,961.75 C559.241,953.01 562.307,945.05 568.122,938.357 C574.534,930.977 578.681,922.606 579.92,912.934 C581.172,903.157 586.097,896.695 595.7,893.887 C613.007,888.827 617.463,875.452 617.761,859.463 C617.821,856.279 618.018,853.105 619.289,850.157 C624.176,838.821 630.466,835.836 643.129,836.311 C649.909,836.566 656.654,837.896 663.403,838.823 C670.372,839.779 673.345,838.136 676.298,831.562 C678.827,825.932 681.659,820.456 685.363,815.502 C690.144,809.108 694.388,808.42 701.24,812.531 C708.935,817.147 714.292,824.356 720.967,830.102 C734.21,841.503 747.648,852.698 760.526,864.5 C780.498,882.802 790.782,906.235 795.006,932.616 C796.596,942.54 796.473,952.465 795.252,962.446 C794.834,965.867 793.279,966.386 790.369,966.335 C782.54,966.198 774.708,966.259 766.877,966.307 C764.659,966.321 762.765,965.988 760.88,964.501 C757.841,962.106 754.11,961.927 751.183,964.356 C747.541,967.377 743.571,965.988 739.719,966.177 C737.799,966.272 737.883,964.633 738.091,963.266 C739.016,957.181 739.922,951.087 739.902,944.92 C739.894,942.47 741.675,941.491 743.078,940.161 C752.352,931.376 760.109,921.477 765.456,909.8 C767.044,906.331 766.883,903.042 764.452,899.969 C762.228,897.157 759.244,896.553 755.926,897.057 C752.857,897.523 750.973,899.423 749.682,902.199 C747.303,907.318 744.464,912.17 740.117,917.126 C738.5,907.406 737.484,898.263 734.992,889.41 C732.048,878.952 728.327,868.826 722.796,859.447 C719.614,854.053 714.882,852.495 710.216,855.035 C705.715,857.484 704.51,862.615 707.491,868.057 C714.254,880.398 718.782,893.449 720.94,908.412" fill="#9FDA83"/>
    <path d="M801.898,1080.48 C802.476,1078.78 802.882,1077.41 803.405,1076.08 C808.142,1064.07 806.178,1053.12 797.497,1043.72 C794.842,1040.85 795.097,1039.15 797.042,1036.22 C808.487,1019.01 816.073,1000.089 821.273,980.167 C823.191,972.819 821.793,969.832 814.951,966.918 C812.304,965.791 812.826,963.804 812.999,961.919 C816.544,923.345 805.523,889.459 780.493,859.973 C769.539,847.068 756.094,836.937 743.087,826.391 C736.255,820.852 732.995,814.992 732.625,805.993 C731.781,785.455 729.631,764.971 728.049,744.461 C727.602,738.668 727.424,732.852 726.857,727.072 C726.533,723.763 727.616,721.997 730.741,720.613 C741.023,716.056 737.824,714.863 744.502,724.125 C768.515,757.428 793.065,790.357 815.361,824.865 C835.615,856.213 854.236,888.463 867.909,923.305 C876.008,943.943 882.17,965.164 882.761,987.524 C883.45,1013.59 874.145,1034.69 851.8,1049.61 C836.029,1060.14 820.233,1070.59 803.777,1080.01 C803.391,1080.24 802.884,1080.24 801.898,1080.48" fill="#9A9A9A"/>
    <path d="M360.369,966.446 C343.729,966.446 327.399,967.057 311.154,966.152 C304.426,965.778 297.814,962.337 291.261,959.982 C269.231,952.067 246.682,945.459 225.52,935.316 C209.617,927.694 198.45,915.693 194.434,897.946 C187.241,866.164 208.202,833.912 239.883,828.5 C252.008,826.428 263.624,829.368 275.087,833.307 C283.327,836.139 289.274,840.128 292.986,849.038 C299.635,864.998 313.179,875.563 326.613,885.821 C332.697,890.466 338.725,895.185 344.827,899.807 C346.218,900.861 347.305,901.799 347.056,903.829 C344.383,925.658 350.509,945.615 360.138,964.816 C360.276,965.09 360.236,965.452 360.369,966.446" fill="#FEFEFE"/>
    <path d="M472.821,839.868 C466.949,842.13 461.411,843.993 456.445,847.066 C454.418,848.32 453.739,847.582 452.867,845.698 C450.214,839.967 447.492,834.256 444.507,828.693 C441.25,822.624 436.287,820.831 431.439,823.589 C426.902,826.17 425.98,831.379 429.086,837.073 C431.857,842.155 434.703,847.198 436.633,852.796 C403.299,848.415 373.703,853.553 352.914,883.848 C339.613,873.021 324.59,863.82 313.74,849.728 C296.596,827.459 299.847,800.629 315.583,781.411 C332.344,760.941 357.803,753.18 383.365,765.769 C392.279,770.16 399.858,776.365 407.407,782.664 C429.149,800.808 450.434,819.476 471.554,838.336 C471.916,838.66 472.183,839.089 472.821,839.868" fill="#FEFEFE"/>
    <path d="M239.917,710.134 C239.917,707.802 240.038,705.462 239.891,703.139 C239.634,699.076 241.232,698.415 244.555,700.309 C256.357,707.033 267.083,714.964 275.092,726.214 C283.448,737.951 289.454,750.944 295.742,763.797 C296.105,764.538 296.145,765.677 296.714,766.041 C302.801,769.943 299.169,773.705 296.704,777.565 C295.454,779.524 293.953,781.477 293.33,783.651 C291.83,788.882 289.141,788.335 285.205,786.281 C278.809,782.943 273.878,778.238 270.016,772.227 C265.605,765.361 262.057,764.241 255.132,768.622 C243.023,776.283 229.758,775.479 216.466,774.648 C212.192,774.38 207.909,773.608 203.854,771.949 C198.411,769.72 196.547,766.4 197.576,760.624 C198.362,756.212 198.441,751.887 194.447,748.79 C190.397,745.649 186.678,747.501 182.427,749.112 C170.325,753.699 157.848,753.887 145.402,750.198 C142.794,749.425 140.651,747.735 139.047,745.536 C136.651,742.249 137.73,738.256 141.398,736.738 C145.392,735.085 148.281,732.477 148.339,727.923 C148.398,723.336 145.458,720.838 141.524,719.058 C130.754,714.186 120.169,709.055 111.215,701.023 C105.434,695.837 105.1,689.274 106.173,682.658 C107.058,677.2 112.579,678.273 116.046,678.478 C130.464,679.327 141.035,687.525 150.147,697.926 C151.77,699.779 152.559,702.163 153.137,704.681 C154.17,709.183 157.147,712 161.961,712.013 C166.668,712.026 169.086,709.148 170.252,704.806 C170.919,702.325 170.785,699.928 170.593,697.416 C169.953,688.996 172.369,685.986 180.066,685.913 C190.04,685.819 197.907,690.768 205.456,696.243 C213.823,702.311 220.275,709.945 223.216,720.225 C224.504,724.727 228.426,726.81 233.017,725.989 C237.576,725.174 239.925,722.282 240.002,717.631 C240.043,715.133 240.009,712.633 240.009,710.134 C239.978,710.134 239.948,710.134 239.917,710.134" fill="#16AD71"/>
    <path d="M461.623,875.559 C458.871,865.641 458.887,865.424 466.736,861.423 C476.833,856.276 487.624,853.822 498.934,853.639 C500.19,853.618 501.583,853.24 503.055,854.67 C475.318,887.889 468.402,925.017 483.34,965.803 C481.747,966.862 480.204,966.457 478.747,966.458 C447.934,966.483 417.12,966.413 386.308,966.562 C382.657,966.58 380.624,965.436 378.863,962.26 C370.627,947.408 364.123,932.027 363.986,914.71 C363.822,894.07 373.304,880.084 392.713,873.215 C407.977,867.813 423.546,866.45 439.026,872.863 C440.528,873.485 442.371,873.795 443.028,875.541 C443.755,877.475 443.811,879.765 442.752,881.356 C441.386,883.408 439.478,881.45 437.899,880.982 C435.69,880.329 433.662,878.861 431.221,879.343 C427.314,880.114 424.503,882.183 423.716,886.334 C422.904,890.62 424.432,893.965 428.26,895.926 C437.231,900.522 446.663,901.582 456.34,898.613 C466.615,895.462 474.415,888.841 480.525,880.209 C483.664,875.774 482.828,870.698 478.94,867.758 C475.054,864.82 470.202,865.571 466.557,869.718 C464.961,871.534 463.434,873.411 461.623,875.559" fill="#FF4900"/>
    <path d="M662.086,819.314 C654.991,820.209 648.13,819.137 641.208,818.846 C616.354,817.804 600.808,835.581 600.271,857.703 C599.991,869.254 596.292,875.801 584.827,879.559 C571.954,883.779 565.165,894.423 563.085,907.736 C561.895,915.348 558.959,921.871 553.965,927.854 C545.654,937.811 541.144,949.579 539.976,962.498 C539.695,965.602 538.478,966.375 535.615,966.336 C526.285,966.208 516.947,966.108 507.623,966.379 C503.99,966.485 502.285,965.126 500.961,961.914 C487.402,929.016 491.183,898.278 513.244,870.413 C534.934,843.017 564.216,827.634 597.846,820.209 C617.173,815.942 636.821,816.031 656.455,818.115 C658.353,818.317 660.21,818.906 662.086,819.314" fill="#9FDA83"/>
    <path d="M709.513,729.074 C711.255,752.783 712.968,776.117 714.714,799.888 C709.701,797.216 705.28,794.258 700.023,792.999 C689.896,790.575 681.662,793.999 674.661,801.037 C672.916,802.791 671.483,803.276 669.037,802.828 C615.583,793.034 566.537,802.886 522.885,836.095 C520.235,838.112 517.988,838.842 514.828,837.871 C510.684,836.599 506.259,835.542 502.038,836.194 C493.892,837.452 490.305,831.259 485.469,827.056 C483.854,825.652 484.79,823.549 484.97,821.819 C487.629,796.163 490.556,770.538 494.452,745.035 C495.18,740.268 496.145,735.533 496.747,730.751 C497.063,728.242 498.011,727.749 500.348,728.395 C508.694,730.701 517.167,732.462 525.805,733.188 C528.912,733.449 528.966,735.222 528.963,737.595 C528.951,752.087 529.037,766.58 529.091,781.072 C529.122,789.506 532.071,792.592 540.466,792.6 C580.118,792.635 619.771,792.634 659.423,792.601 C667.873,792.594 670.89,789.535 670.906,781.179 C670.932,767.517 670.892,753.855 670.94,740.194 C670.946,738.555 670.137,736.415 673.174,736.184 C685.462,735.249 697.431,732.533 709.513,729.074" fill="#FFCC00"/>
    <path d="M69.986,846.202 C69.921,841.244 72.139,837.641 75.146,834.364 C78.065,831.182 80.982,827.993 83.792,824.716 C86.44,821.627 86.787,818.091 85.077,814.469 C83.458,811.041 80.43,810.232 76.837,809.979 C65.107,809.152 53.305,808.867 41.797,806.029 C36.56,804.738 31.711,802.455 27.289,799.514 C19.534,794.356 15.639,782.704 18.236,773.713 C19.921,767.883 27.36,763.475 34.732,764.255 C44.178,765.255 53.469,766.899 61.816,771.921 C68.131,775.72 73.181,780.457 75.399,787.803 C76.933,792.885 80.618,795.443 84.856,794.895 C89.696,794.269 92.904,790.702 92.853,785.067 C92.8,779.143 93.811,773.527 95.821,767.994 C100.348,755.531 109.255,752.408 119.913,760.043 C134.149,770.242 142.202,784.823 147.759,800.985 C148.331,802.65 147.931,804.628 148.161,806.438 C148.783,811.321 152.115,814.721 156.429,815.007 C160.764,815.295 164.497,812.408 165.882,807.693 C166.442,805.784 166.851,803.815 167.578,801.972 C169.801,796.335 170.935,795.938 175.843,799.316 C184.31,805.143 190.258,812.989 193.969,822.553 C194.149,823.018 194.26,823.512 194.472,823.961 C196.803,828.916 197.613,833.309 192.518,837.561 C189.43,840.138 188.034,845.803 184.826,846.845 C182.221,847.691 178.128,843.552 174.562,841.914 C163.061,836.631 151.646,838.437 142.69,846.795 C138.858,850.371 135.523,850.201 132.874,845.537 C129.901,840.304 126.333,838.114 120.207,839.866 C117.866,840.536 115.012,839.296 112.379,839.083 C98.953,837.992 88.548,843.732 80.041,853.593 C76.54,857.652 73.914,857.473 71.44,852.64 C70.384,850.577 69.739,848.294 69.986,846.202" fill="#16AD71"/>
    <path d="M882.654,353.048 C882.316,357.879 882.24,362.215 881.664,366.484 C880.529,374.898 879.172,375.39 872.606,370.125 C861.572,361.278 852.816,350.484 845.574,338.403 C835.651,321.85 829.86,304.035 829.033,284.673 C828.831,279.93 825.724,277.057 821.028,276.951 C815.735,276.832 812.128,279.711 811.971,284.76 C811.759,291.581 811.912,298.415 811.993,305.242 C812.042,309.268 811.65,313.225 810.405,317.05 C809.699,319.221 809.411,322.102 806.944,322.773 C804.269,323.5 802.901,320.751 801.559,319.046 C792.993,308.16 785.521,296.574 779.981,283.824 C776.796,276.492 774.437,268.896 772.396,261.164 C771.374,257.294 772.888,256.722 776.043,257.223 C807.392,262.196 838.388,268.71 868.732,278.162 C871.704,279.087 872.922,280.726 873.547,283.571 C878.04,304.04 881.223,324.677 881.988,345.651 C882.084,348.298 882.458,350.935 882.654,353.048" fill="#AD9B8F"/>
    <path d="M938.083,389.281 C924.055,389.233 910.226,387.224 896.41,385.07 C895.013,384.852 893.657,384.835 894.687,382.706 C901.05,369.55 900.237,355.5 899.421,341.544 C898.401,324.092 896.202,306.765 892.798,289.601 C892.55,288.35 891.217,286.795 893.376,285.716 C894.903,284.953 895.872,285.683 896.941,286.538 C921.013,305.808 944.721,325.463 963.503,350.251 C968.04,356.239 971.994,362.58 974.097,369.903 C976.271,377.475 974.243,382.039 967.006,385.163 C957.76,389.155 947.93,389.339 938.083,389.281" fill="#FEFEFE"/>
    <path d="M166.061,889.092 C149.024,889.391 132.972,893.834 117.546,900.795 C96.045,910.498 77.039,924.25 57.814,937.655 C55.162,939.504 52.16,943.522 49.605,942.223 C46.526,940.658 47.865,935.843 47.941,932.432 C48.287,916.868 55.244,905.15 68.916,897.591 C72.149,895.804 75.743,895.16 79.46,895.019 C85.613,894.786 89.011,890.595 88.244,884.419 C86.593,871.137 95.453,858.293 107.518,856.715 C113.429,855.942 118.513,858.594 123.439,861.357 C127.349,863.549 131.096,866.029 134.932,868.354 C139.826,871.32 143.86,870.711 147.931,866.584 C149.783,864.705 151.048,862.396 153.303,860.76 C160.572,855.49 172.253,857.152 177.353,864.442 C178.12,865.538 177.922,866.629 177.591,867.767 C175.992,873.258 175.662,878.896 175.973,884.548 C176.159,887.921 175.194,889.578 171.549,889.131 C169.746,888.909 167.892,889.092 166.061,889.092" fill="#16AD71"/>
    <path d="M713.969,1110.98 C698.535,1109.66 683.834,1105.59 671.662,1094.88 C669.589,1093.06 666.386,1090.83 667.382,1088.12 C668.605,1084.8 672.545,1083.64 676.032,1083.11 C679.615,1082.56 682.935,1084.02 686.127,1085.42 C691.756,1087.9 697.248,1090.69 702.897,1093.11 C708.917,1095.7 713.525,1094.49 715.923,1090.01 C718.415,1085.36 716.856,1081.43 711.307,1077.56 C705.714,1073.65 703.377,1067.89 702.793,1061.33 C702.467,1057.66 704.187,1056.66 707.708,1057.59 C713.388,1059.08 718.642,1061.53 723.83,1064.18 C731.381,1068.03 738.58,1072.58 746.498,1075.71 C750.996,1077.49 755.312,1077.97 758.734,1073.7 C761.975,1069.65 760.9,1065.71 758.282,1061.75 C756.152,1058.54 754.734,1054.95 754.164,1051.13 C753.704,1048.04 754.802,1045.83 758.311,1045.68 C769.281,1045.21 778.583,1048.98 785.786,1057.24 C789.033,1060.96 788.896,1065.53 786.907,1069.95 C784.69,1074.87 781.496,1079.15 777.453,1082.69 C760.271,1097.76 740.522,1107.4 717.775,1110.6 C716.624,1110.76 715.461,1110.83 713.969,1110.98" fill="#FEF5E2"/>
    <path d="M390.843,1114.74 C368.523,1112.13 346.325,1102.71 328.679,1084.95 C316.009,1072.19 310.612,1055.68 311.823,1037.49 C312.315,1030.09 314.549,1029.17 320.992,1032.82 C324.45,1034.78 326.204,1037.91 327.17,1041.51 C329.104,1048.73 330.884,1055.98 332.696,1063.23 C333.575,1066.74 335.586,1069.19 339.161,1070.1 C345.502,1071.71 350.7,1067.14 349.886,1060.24 C349.138,1053.89 351.555,1048.83 355.318,1044.22 C359.364,1039.26 361.59,1039.63 363.948,1045.49 C367.263,1053.73 368.313,1062.51 369.955,1071.15 C370.915,1076.2 371.988,1081.25 373.305,1086.22 C374.456,1090.57 377.061,1093.71 381.976,1093.83 C386.863,1093.96 389.509,1091.08 391.021,1086.73 C392.283,1083.1 394.022,1079.7 396.638,1076.81 C399.223,1073.96 401.761,1073.39 404.501,1076.69 C410.548,1083.96 413.201,1092.5 412.487,1101.7 C411.781,1110.8 404.682,1115.3 390.843,1114.74" fill="#FEF5E2"/>
    <path d="M297.524,609 C300.357,608.735 301.154,610.18 300.979,612.643 C300.729,616.16 299.75,619.522 298.55,622.778 C292.269,639.829 293.429,657.409 294.778,674.98 C296.844,701.914 307.822,725.529 322.422,747.706 C324.231,750.453 324.356,752.139 321.172,753.468 C321.019,753.532 320.879,753.627 320.737,753.714 C312.193,758.921 312.336,758.859 308.208,749.456 C300.889,732.783 291.999,717.06 279.191,703.882 C274.664,699.225 269.246,695.607 264.096,691.686 C259.009,687.813 259.229,682.825 264.752,679.282 C266.404,678.222 268.36,677.622 270.202,676.873 C276.054,674.491 277.978,669.987 275.522,664.101 C269.707,650.17 270.526,636.428 277.502,623.278 C281.676,615.41 288.997,611.115 297.524,609" fill="#16AD71"/>
    <path d="M918.958,440.043 C918.911,458.247 911.579,467.377 894.93,471.072 C887.444,472.734 879.829,473.409 872.215,474.128 C869.755,474.361 868.44,473.98 868.902,471.022 C872.084,450.643 874.366,430.157 875.889,409.589 C876.038,407.579 876.917,407.073 878.752,407.244 C889.483,408.248 899.827,410.409 908.488,417.395 C916.04,423.488 919.103,431.629 918.958,440.043" fill="#FEF5E2"/>
    <path d="M328.536,474.01 C320.657,472.989 312.702,472.474 304.945,470.373 C293.651,467.314 286.025,460.831 284.225,448.855 C282.345,436.349 284.076,424.884 295.013,416.64 C303.279,410.409 312.991,408.371 323.007,407.265 C326.201,406.913 325.83,409.039 325.986,411.049 C327.531,430.934 329.439,450.786 332.661,470.475 C333.366,474.781 331.194,474.319 328.536,474.01" fill="#FEF5E2"/>
    <path d="M338.087,277.686 C354.185,272.569 370.549,268.517 388.071,264.727 C381.577,272.561 375.645,279.427 370.034,286.545 C357.245,302.771 345.999,319.932 337.306,338.796 C332.74,348.702 327.965,358.641 321.12,367.325 C318.579,365.764 318.667,363.155 318.585,360.691 C318.307,352.33 319.693,344.123 321.265,335.971 C324.637,318.489 329.252,301.331 335.137,284.516 C335.962,282.157 337.165,279.988 338.087,277.686" fill="#AD9B8F"/>
    <path d="M479.872,724.151 C477.995,736.713 476.089,748.327 474.559,759.989 C472.533,775.435 470.798,790.92 468.944,806.388 C468.771,807.827 469.386,809.779 467.731,810.405 C466.402,810.907 465.49,809.222 464.526,808.393 C454.58,799.827 444.762,791.109 434.713,782.667 C432.22,780.572 433.689,779.265 434.813,777.734 C443.266,766.214 451.772,754.733 460.246,743.228 C465.075,736.671 469.899,730.109 474.669,723.509 C475.677,722.116 476.531,720.576 478.586,721.265 C480.569,721.929 479.838,723.696 479.872,724.151" fill="#9A9A9A"/>
    <path d="M338.087,277.686 C339.521,278.978 338.249,280.179 337.844,281.288 C329.452,304.236 323.359,327.754 320.422,352.034 C319.807,357.117 319.436,362.294 321.12,367.323 C320.071,369.991 318.384,373.751 316.204,373.626 C313.378,373.463 313.429,369.277 312.763,366.662 C309.806,355.058 310.29,343.232 311.004,331.45 C311.891,316.825 313.723,302.345 318.633,288.392 C319.72,285.302 321.177,283.264 324.407,282.31 C329.02,280.946 333.532,279.244 338.087,277.686" fill="#FEFEFE"/>
    <path d="M636.379,738.808 C629.516,749.31 622.927,758.581 612.845,764.654 C606.457,768.503 600.264,766.749 594.55,763.066 C585.126,756.992 578.709,748.17 572.109,737.811 C593.876,739.515 614.621,740.377 636.379,738.808" fill="#FEF5E2"/>
    <path d="M580.472,775.053 C569.285,775.053 559.519,775.024 549.754,775.075 C547.577,775.087 546.854,774.106 546.857,772.05 C546.872,760.733 546.815,749.416 546.813,738.098 C546.813,737.189 546.467,735.86 547.902,735.755 C549.492,735.639 550.632,736.459 551.524,737.896 C555.203,743.822 558.691,749.857 562.747,755.562 C567.594,762.379 573.368,768.307 580.472,775.053" fill="#9A9A9A"/>
    <path d="M629.024,775.066 C639.001,766.359 645.891,756.482 653.783,746.576 C653.783,751.903 653.783,757.229 653.783,762.556 C653.783,775.066 653.783,775.066 641.492,775.066 C637.683,775.066 633.875,775.066 629.024,775.066" fill="#999A9B"/>
    <path d="M483.772,251.977 C482.759,250.464 481.064,251.562 479.817,250.945 C481.069,249.857 482.738,249.774 484.044,250.15 C486.588,250.882 484.536,251.441 483.772,251.977" fill="#5F3900"/>
    <path d="M418.283,516.249 C406.725,515.636 395.013,514.062 384.184,508.249 C363.988,497.411 360.629,478.014 376.115,460.421 C386.637,448.468 400.458,443.76 415.76,442.148 C434.07,440.219 456.169,453.915 462.875,471.146 C467.777,483.743 463.892,492.294 455.684,500.53 C448.164,508.075 439.087,513.671 428.155,515.595 C424.975,516.155 421.858,515.77 418.283,516.249" fill="#FFE0C5"/>
    <path d="M791.867,513.189 C777.543,512.581 763.779,510.047 752.936,499.567 C744.112,491.039 742.591,480.85 748.474,470.066 C756.191,455.922 768.531,448.579 784.239,446.018 C798.908,443.626 812.142,446.72 823.211,456.451 C831.542,463.775 837.411,472.982 835.794,484.864 C834.716,492.782 829.112,498.022 823.303,502.85 C814.22,510.4 803.805,514.032 791.867,513.189" fill="#FFE0C5"/>
    <path d="M597.167,632.178 C585.381,631.956 570.595,628.943 557.924,619.091 C551.844,614.364 547.601,608.29 545.475,600.866 C544.281,596.694 546.194,592.822 549.992,591.559 C554.016,590.221 557.825,591.32 559.19,595.235 C563.683,608.126 574.128,612.945 586.041,615.537 C601.241,618.844 616.142,617.723 630.211,610.517 C636.141,607.479 640.728,603.106 643.31,596.73 C645.254,591.931 649.072,590.253 653.228,591.892 C657.526,593.588 659.028,597.611 657.113,602.679 C653.457,612.356 646.444,619.005 637.528,623.765 C626.129,629.85 613.826,632.237 597.167,632.178" fill="#5F3900"/>
    <path d="M522.978,400.228 C522.731,408.947 520.456,416.967 514.345,423.464 C508.451,429.73 501.301,429.836 495.016,424.007 C483.588,413.409 483.013,391.803 493.86,380.586 C501.307,372.884 512.816,374.028 518.543,383.113 C521.824,388.319 523.135,394.085 522.978,400.228" fill="#5F3900"/>
    <path d="M717.022,397.341 C716.859,408.658 714.63,416.848 708.335,423.458 C702.239,429.857 694.989,429.837 688.655,423.661 C677.673,412.951 677.122,392.26 687.518,380.917 C695.022,372.729 707.126,373.959 712.819,383.557 C715.764,388.522 717.205,393.922 717.022,397.341" fill="#5F3900"/>
    <path d="M590.713,421.463 C590.827,416.094 592.951,413.196 597.172,412.136 C601.664,411.007 605.754,412.969 607.351,417.169 C608.701,420.721 610.014,424.236 611.719,427.668 C613.705,431.661 612.528,435.533 608.871,438.249 C605.192,440.981 600.346,440.465 597.164,436.869 C593.06,432.231 591.555,426.461 590.713,421.463" fill="#5F3900"/>
    <path d="M600.415,125.632 C621.16,126.306 639.694,127.984 656.308,137.878 C673.114,147.887 680.622,164.804 676.877,183.798 C675.479,190.884 672.802,193.284 665.67,193.103 C645.546,192.591 625.427,191.53 605.303,191.438 C588.007,191.359 570.706,192.326 553.407,192.809 C548.248,192.953 543.088,193.022 537.929,193.137 C532.83,193.25 530.017,190.644 528.63,185.85 C523.894,169.471 529.99,151.569 544.021,141.015 C555.142,132.651 568.077,129.13 581.54,127.274 C588.45,126.321 595.453,126.046 600.415,125.632" fill="#5F3900"/>
    <path d="M562.758,175.22 C558.264,175.22 553.75,174.958 549.281,175.297 C545.139,175.612 544.398,173.692 544.991,170.27 C546.238,163.077 550.448,157.941 556.271,153.905 C564.577,148.148 574.173,145.91 583.875,144.53 C602.516,141.878 621.014,142.647 638.948,149.033 C648.198,152.326 655.97,157.471 659.17,167.454 C661.35,174.253 660.521,175.216 653.512,175.228 C630.889,175.266 608.293,173.262 585.666,174.275 C578.03,174.616 570.408,175.189 562.758,175.22" fill="#AD9B8F"/>
  </g>
</svg>
