<?xml version="1.0" encoding="UTF-8" standalone="no"?>
<!-- Created with Inkscape (http://www.inkscape.org/) -->
<svg xmlns:inkscape="http://www.inkscape.org/namespaces/inkscape" xmlns:rdf="http://www.w3.org/1999/02/22-rdf-syntax-ns#" xmlns="http://www.w3.org/2000/svg" xmlns:xlink="http://www.w3.org/1999/xlink" xmlns:ns1="http://sozi.baierouge.fr" xmlns:cc="http://creativecommons.org/ns#" xmlns:sodipodi="http://sodipodi.sourceforge.net/DTD/sodipodi-0.dtd" xmlns:dc="http://purl.org/dc/elements/1.1/" id="svg2" xml:space="preserve" viewBox="0 0 32.68 46.54" version="1.1" inkscape:version="0.91 r13725">
  <defs id="defs6">
    <clipPath id="clipPath18">
      <path id="path20" d="m6-0.76832h18v22h-18v-22z" inkscape:connector-curvature="0"/>
    </clipPath>
    <mask id="mask22">
      <g id="g24">
        <g id="g26" clip-path="url(#clipPath18)">
          <path id="path28" style="fill:#000000;fill-opacity:.44920" d="m6-0.76832h18v22h-18v-22z" inkscape:connector-curvature="0"/>
        </g>
      </g>
    </mask>
    <clipPath id="clipPath34">
      <path id="path36" d="m6-0.76832h18v22h-18v-22z" inkscape:connector-curvature="0"/>
    </clipPath>
    <clipPath id="clipPath38">
      <path id="path40" d="m6 0h18v22h-18v-22z" inkscape:connector-curvature="0"/>
    </clipPath>
    <linearGradient id="linearGradient70" y2="48.475" gradientUnits="userSpaceOnUse" x2="33.149" gradientTransform="matrix(.64 0 0 -.64 .0008 37.232)" y1="48.475" x1="12.95">
      <stop id="stop72" style="stop-color:#e8e2ac" offset="0"/>
      <stop id="stop74" style="stop-color:#e8e4b9" offset=".149"/>
      <stop id="stop76" style="stop-color:#e8e5c1" offset="0.298"/>
      <stop id="stop78" style="stop-color:#cfc784" offset="1"/>
    </linearGradient>
    <linearGradient id="linearGradient118" y2="-47.126" gradientUnits="userSpaceOnUse" x2="-6.2537" gradientTransform="matrix(-.6048 -.20936 -.20936 .6048 .0024 37.232)" y1="-47.126" x1="-16.571">
      <stop id="stop120" style="stop-color:#e8e5c1" offset="0"/>
      <stop id="stop122" style="stop-color:#cfc784" offset="1"/>
    </linearGradient>
    <linearGradient id="linearGradient140" y2="41.891" gradientUnits="userSpaceOnUse" x2="28.401" gradientTransform="matrix(.64 0 0 -.64 .0008 37.232)" y1="-1.6538" x1="30.253">
      <stop id="stop142" style="stop-color:#5c962f" offset="0"/>
      <stop id="stop144" style="stop-color:#5f942c" offset=".53330"/>
      <stop id="stop146" style="stop-color:#678e24" offset=".86670"/>
      <stop id="stop148" style="stop-color:#6d8a1e" offset="1"/>
    </linearGradient>
    <linearGradient id="linearGradient256" y2="23.045" gradientUnits="userSpaceOnUse" x2="-5.1012" gradientTransform="matrix(-.04688 .63824 .63824 .04688 .0008 37.232)" y1="23.045" x1="-43.003">
      <stop id="stop258" style="stop-color:#5c962f" offset="0"/>
      <stop id="stop260" style="stop-color:#5f942c" offset=".53330"/>
      <stop id="stop262" style="stop-color:#678e24" offset=".86670"/>
      <stop id="stop264" style="stop-color:#6d8a1e" offset="1"/>
    </linearGradient>
    <linearGradient id="linearGradient282" y2="42.512" gradientUnits="userSpaceOnUse" x2="29.784" gradientTransform="matrix(.64 0 0 -.64 .0008 37.232)" y1="11.987" x1="29.662">
      <stop id="stop284" style="stop-color:#5c962f" offset="0"/>
      <stop id="stop286" style="stop-color:#5f942c" offset=".53330"/>
      <stop id="stop288" style="stop-color:#678e24" offset=".86670"/>
      <stop id="stop290" style="stop-color:#6d8a1e" offset="1"/>
    </linearGradient>
    <clipPath id="clipPath342">
      <path id="path344" d="m6 1.2317h17v18h-17v-18z" inkscape:connector-curvature="0"/>
    </clipPath>
    <mask id="mask346">
      <g id="g348">
        <g id="g350" clip-path="url(#clipPath342)">
          <path id="path352" style="fill:#000000;fill-opacity:.35940" d="m6 1.2317h17v18h-17v-18z" inkscape:connector-curvature="0"/>
        </g>
      </g>
    </mask>
    <clipPath id="clipPath358">
      <path id="path360" d="m6 1.2317h17v18h-17v-18z" inkscape:connector-curvature="0"/>
    </clipPath>
    <clipPath id="clipPath362">
      <path id="path364" d="m6 2h17v18h-17v-18z" inkscape:connector-curvature="0"/>
    </clipPath>
  </defs>
  <g id="g10" transform="matrix(1.25 0 0 -1.25 0 46.54)">
    <g id="g12">
      <g id="g14">
        <g id="g30" mask="url(#mask22)">
          <g id="g42">
            <g id="g44" clip-path="url(#clipPath34)">
              <g id="g46" transform="translate(0 -.76832)">
                <g id="g50">
                  <g id="g52" clip-path="url(#clipPath38)">
                    <g id="g54">
                      <path id="path56" style="fill-rule:evenodd;fill:#ccf6ff" d="m23.199 19.391h0.035l-3.043-16.926v-0.067c0-0.445-0.519-0.832-1.566-1.152-1.047-0.316-2.316-0.476-3.809-0.476-1.492 0-2.761 0.16-3.808 0.476-1.047 0.32-1.567 0.707-1.567 1.152v0.067l-3.007 16.734-0.032 0.129v0.063c0.063 0.664 0.907 1.218 2.528 1.664 1.64 0.468 3.605 0.707 5.886 0.707 2.282 0 4.246-0.239 5.887-0.707 1.621-0.446 2.453-1 2.496-1.664z" inkscape:connector-curvature="0"/>
                    </g>
                  </g>
                </g>
              </g>
            </g>
          </g>
        </g>
      </g>
      <path id="path58" style="fill-rule:evenodd;fill:#ccf6ff" d="m8.418 20.146h0.031l0.512 0.156 0.066 0.035 4.125 0.606c0.11 0.023 0.278 0.035 0.516 0.035h2.336c0.234 0 0.402-0.012 0.512-0.035l3.519-0.481h0.094l0.547-0.16h0.062l0.512-0.156c1.195-0.407 1.855-0.887 1.984-1.442h-1.312c0 0.493-0.684 0.907-2.047 1.25-1.367 0.34-3.008 0.512-4.93 0.512-1.918 0-3.562-0.172-4.925-0.512-1.368-0.343-2.051-0.757-2.051-1.25h-1.504c0.105 0.555 0.758 1.035 1.953 1.442z" inkscape:connector-curvature="0"/>
      <g id="g60">
        <g id="g62">
          <g id="g68">
            <path id="path80" style="fill-rule:evenodd;fill:url(#linearGradient70)" d="m8.289 10.45 12.93-0.066-1.539-6.848v-0.062c0-0.43-0.481-0.781-1.438-1.059-0.961-0.297-2.125-0.445-3.488-0.445-1.367 0-2.527 0.148-3.488 0.445-0.961 0.278-1.442 0.629-1.442 1.059v0.062l-1.535 6.914z" inkscape:connector-curvature="0"/>
          </g>
        </g>
      </g>
      <path id="path82" style="fill-rule:evenodd;fill:#bab573" d="m20.031 7.728c0.024-0.129-0.008-0.438-0.093-0.926-0.043-0.301-0.172-0.352-0.383-0.16-0.215 0.168-0.258 0.426-0.129 0.765 0.129 0.321 0.246 0.504 0.351 0.547 0.129 0.039 0.211-0.035 0.254-0.226z" inkscape:connector-curvature="0"/>
      <path id="path84" style="fill-rule:evenodd;fill:#bab573" d="m19.23 5.681c0.196 0.129 0.344 0.117 0.45-0.031l0.031-0.832c-0.043-0.172-0.18-0.215-0.414-0.129-0.235 0.105-0.352 0.265-0.352 0.48s0.094 0.383 0.285 0.512z" inkscape:connector-curvature="0"/>
      <path id="path86" style="fill-rule:evenodd;fill:#bab573" d="m18.527 6.415c0.086-0.277 0.043-0.543-0.125-0.797-0.152-0.234-0.269-0.203-0.355 0.094-0.063 0.277-0.02 0.512 0.129 0.703 0.172 0.192 0.289 0.192 0.351 0z" inkscape:connector-curvature="0"/>
      <path id="path88" style="fill-rule:evenodd;fill:#bab573" d="m19.074 5.072c0.211-0.34 0.246-0.629 0.094-0.864-0.148-0.234-0.32-0.246-0.512-0.031-0.172 0.148-0.16 0.363 0.032 0.641 0.191 0.296 0.32 0.382 0.386 0.254z" inkscape:connector-curvature="0"/>
      <path id="path90" style="fill-rule:evenodd;fill:#bab573" d="m17.887 6.064c0.023-0.235 0-0.383-0.063-0.45-0.062-0.082-0.16-0.042-0.289 0.129-0.125 0.172-0.094 0.309 0.098 0.418 0.172 0.106 0.254 0.075 0.254-0.097z" inkscape:connector-curvature="0"/>
      <path id="path92" style="fill-rule:evenodd;fill:#bab573" d="m16.961 4.146c0.297-0.192 0.371-0.375 0.223-0.547-0.129-0.168-0.34-0.235-0.641-0.192-0.254 0.043-0.297 0.204-0.129 0.481 0.195 0.277 0.375 0.363 0.547 0.258z" inkscape:connector-curvature="0"/>
      <path id="path94" style="fill-rule:evenodd;fill:#bab573" d="m18.113 3.345c0.172 0 0.254-0.098 0.254-0.289-0.019-0.168-0.125-0.254-0.32-0.254-0.192 0-0.266 0.086-0.223 0.254 0.024 0.191 0.117 0.289 0.289 0.289z" inkscape:connector-curvature="0"/>
      <path id="path96" style="fill-rule:evenodd;fill:#bab573" d="m19.391 6.704c0.066-0.425 0.035-0.66-0.094-0.703-0.152-0.066-0.223 0.008-0.223 0.223 0 0.148 0.051 0.289 0.156 0.418 0.11 0.125 0.161 0.148 0.161 0.062z" inkscape:connector-curvature="0"/>
      <path id="path98" style="fill-rule:evenodd;fill:#bab573" d="m18.754 6.802c0.234-0.215 0.277-0.363 0.125-0.449-0.149-0.086-0.297-0.074-0.449 0.031-0.125 0.086-0.125 0.191 0 0.32 0.129 0.149 0.238 0.184 0.324 0.098z" inkscape:connector-curvature="0"/>
      <path id="path100" style="fill-rule:evenodd;fill:#bab573" d="m16.098 5.169c0.316-0.066 0.382-0.215 0.191-0.449-0.215-0.234-0.406-0.297-0.578-0.191-0.149 0.085-0.16 0.222-0.031 0.414 0.105 0.191 0.246 0.269 0.418 0.226z" inkscape:connector-curvature="0"/>
      <path id="path102" style="fill-rule:evenodd;fill:#bab573" d="m11.969 6.673c0.148-0.148 0.16-0.332 0.031-0.543-0.129-0.195-0.277-0.238-0.449-0.129-0.168 0.129-0.18 0.297-0.031 0.512 0.171 0.234 0.32 0.289 0.449 0.16z" inkscape:connector-curvature="0"/>
      <path id="path104" style="fill-rule:evenodd;fill:#bab573" d="m12.227 3.536c0.445-0.062 0.617-0.265 0.511-0.609-0.043-0.125-0.129-0.18-0.258-0.16-0.148 0.023-0.308 0.117-0.48 0.289-0.168 0.172-0.211 0.297-0.129 0.383 0.067 0.109 0.184 0.14 0.356 0.097z" inkscape:connector-curvature="0"/>
      <path id="path106" style="fill-rule:evenodd;fill:#ffffff" d="m21.184 10.29c0-0.406-0.629-0.75-1.887-1.027s-2.774-0.414-4.543-0.414c-1.793 0-3.32 0.137-4.578 0.414s-1.887 0.621-1.887 1.027c0 0.403 0.629 0.746 1.887 1.02 1.258 0.277 2.785 0.418 4.578 0.418 1.769 0 3.281-0.137 4.543-0.418 1.258-0.278 1.887-0.617 1.887-1.02z" inkscape:connector-curvature="0"/>
      <g id="g108">
        <g id="g110">
          <g id="g116">
            <path id="path124" style="fill-rule:evenodd;fill:url(#linearGradient118)" d="m21.184 10.415c0-0.359-0.629-0.672-1.887-0.926-1.238-0.257-2.754-0.382-4.543-0.382-1.793 0-3.32 0.125-4.578 0.382-1.258 0.254-1.887 0.567-1.887 0.926 0 0.364 0.629 0.676 1.887 0.93 1.281 0.254 2.804 0.383 4.578 0.383 1.769 0 3.281-0.129 4.543-0.383 1.258-0.258 1.887-0.566 1.887-0.93z" inkscape:connector-curvature="0"/>
          </g>
        </g>
      </g>
      <path id="path126" style="fill-rule:evenodd;fill:#e7f77e" d="m18.207 37.2 1.762 0.032 0.863-2.114-4.609-22.879-0.766-0.734-0.703 0.317c0.766 7.574 1.383 12.535 1.855 14.882 0.469 2.325 1 5.825 1.598 10.496z" inkscape:connector-curvature="0"/>
      <path id="path128" style="fill-rule:evenodd;fill:#94c908" d="m16.863 22.896c0.449 2.476 1.379 7.254 2.785 14.336h0.321l0.414-1.024-4.192-24-0.734-0.703-0.223 0.094c0.789 5.89 1.332 9.656 1.629 11.297z" inkscape:connector-curvature="0"/>
      <g id="g130">
        <g id="g132">
          <g id="g138">
            <path id="path150" style="fill-rule:evenodd;fill:url(#linearGradient140)" d="m20.961 36.911 1.086-0.511c-1-3.114-1.867-6.262-2.59-9.442-1.301-5.695-2.211-10.816-2.719-15.359-0.023-0.043-0.226-0.063-0.609-0.063l-0.672-0.031c0.789 5.824 1.406 9.918 1.855 12.285l2.657 13.442 0.191-0.032c0.192-0.043 0.461-0.14 0.801-0.289z" inkscape:connector-curvature="0"/>
          </g>
        </g>
      </g>
      <path id="path152" style="fill-rule:evenodd;fill:#f7aa36" d="m11.809 34.833c0-4.437 0.062-7.777 0.191-10.015 0.129-2.219 0.098-6.926-0.094-14.114l-0.609-0.257-0.512 0.738-1.25 21.918 0.899 1.922 1.375-0.192z" inkscape:connector-curvature="0"/>
      <path id="path154" style="fill-rule:evenodd;fill:#f09308" d="m11.395 21.294c0.148-3.367 0.179-6.965 0.093-10.781l-0.191-0.063-0.512 0.735-0.769 22.91 0.418 0.93 0.222-0.032 0.739-13.699z" inkscape:connector-curvature="0"/>
      <path id="path156" style="fill-rule:evenodd;fill:#d4850f" d="m10.305 10.642c0.086 4.308-0.098 9.203-0.543 14.687-0.235 3.047-0.586 6.078-1.059 9.086l0.93 0.383c0.449 0.172 0.715 0.246 0.801 0.227l0.703-12.864c0.105-2.261 0.16-6.168 0.16-11.714l-0.992 0.195z" inkscape:connector-curvature="0"/>
      <path id="path158" style="fill-rule:evenodd;fill:#bf7506" d="m10.242 17.263c0.363-0.125 0.703-0.203 1.024-0.223l0.031-2.976-0.992 0.289-0.063 2.91z" inkscape:connector-curvature="0"/>
      <path id="path160" style="fill-rule:evenodd;fill:#bf7506" d="m11.199 20.368c-0.363 0.063-0.734 0.172-1.117 0.321l-0.16 2.398c0.445-0.172 0.84-0.265 1.183-0.289l0.094-2.43z" inkscape:connector-curvature="0"/>
      <path id="path162" style="fill-rule:evenodd;fill:#bf7506" d="m10.527 33.489 0.129-2.531-1.406-0.48-0.32 2.465c0.531 0.234 1.066 0.418 1.597 0.546z" inkscape:connector-curvature="0"/>
      <path id="path164" style="fill-rule:evenodd;fill:#bf7506" d="m10.945 25.681c-0.511 0.043-0.918 0.062-1.215 0.062l-0.16 1.825 1.278 0.16 0.097-2.047z" inkscape:connector-curvature="0"/>
      <path id="path166" style="fill-rule:evenodd;fill:#4f6e34" d="m11.008 22.704c-0.703-0.98-1.227-1.461-1.567-1.441l-0.898 0.031c0.043-0.426-0.094-0.703-0.414-0.832-0.106-0.039-0.258-0.148-0.449-0.316-0.106-0.086-0.246-0.117-0.414-0.098-0.196 0.02-0.407 0.234-0.641 0.641-0.234 0.383-0.332 0.609-0.289 0.672 0.105 0.148 0.449 0.535 1.023 1.152 0.641 0.703 1.024 1.086 1.153 1.152 0.129 0.043 0.586-0.109 1.375-0.449 0.386-0.172 0.758-0.34 1.121-0.512z" inkscape:connector-curvature="0"/>
      <path id="path168" style="fill-rule:evenodd;fill:#658c42" d="m9.793 21.872 0.32 0.418 0.321-0.289c0.211-0.234 0.339-0.48 0.382-0.738 0.063-0.426 0.161-1.438 0.289-3.039 0.043-0.297-0.019-0.449-0.191-0.449-0.234 0-0.394-0.063-0.48-0.192-0.149-0.172-0.512-0.031-1.09 0.418-0.981 0.789-1.504 1.203-1.567 1.25l-2.625 1.727 0.129 0.734 1.504-1.023c0.703-0.512 1.281-0.864 1.727-1.055 0.258-0.105 0.535-0.203 0.832-0.289 0.344-0.148 0.511-0.488 0.511-1.023 0.086 0.148 0.141 0.343 0.161 0.578 0.023 0.425-0.161 0.777-0.543 1.054l-2.274 1.375 0.227 0.16 2.465-1.312c0.148 0.191 0.222 0.375 0.222 0.547l-0.32 1.148z" inkscape:connector-curvature="0"/>
      <path id="path170" style="fill-rule:evenodd;fill:#81b354" d="m7.871 21.743-1.375 0.93 1.059 0.992-0.098-0.289c0.02-0.277 0.254-0.629 0.703-1.054l2.305-2.051-0.672 4.64 1.441-0.125 0.125-0.195c0.067-0.234 0.055-0.684-0.031-1.344-0.172-1.363-0.246-2.312-0.223-2.847 0.043-0.852 0.297-1.77 0.766-2.75 0.598-1.258 0.984-1.953 1.152-2.082l0.098-0.383c-0.023-0.321-0.258-0.61-0.707-0.863-0.426-0.258-0.852-0.344-1.277-0.258l-0.543 0.191c0.148 0.43-0.024 1.145-0.516 2.145-0.383 0.769-0.68 1.269-0.894 1.504-0.254 0.281-0.801 0.683-1.633 1.218-0.723 0.446-1.313 0.754-1.758 0.926l-0.481 0.129 0.254 0.895 1.313-1.024c0.535-0.359 1.004-0.574 1.41-0.641-0.129 0.516-0.387 0.887-0.769 1.122l-1.184 0.832 0.16 0.351 1.344-1.086c0.406-0.344 0.82-0.523 1.25-0.547-0.215 0.684-0.621 1.239-1.219 1.664z" inkscape:connector-curvature="0"/>
      <path id="path172" style="fill-rule:evenodd;fill:#66943b" d="m10.273 18.415c0.215-0.703 0.415-1.258 0.606-1.664 0.129-0.254 0.289-0.66 0.48-1.215 0.11-0.363 0.235-0.609 0.387-0.734 0.32-0.301 0.715-0.16 1.184 0.414h0.191c-0.043-0.34-0.277-0.641-0.703-0.894-0.406-0.235-0.789-0.333-1.152-0.29l-0.352 0.161-0.098 0.543-0.671 2.082 0.546-1.09c0.082-0.254 0.286-0.715 0.606-1.375 0.129-0.106 0.191-0.051 0.191 0.16 0 0.086-0.093 0.32-0.285 0.703-0.215 0.473-0.375 0.906-0.48 1.313l-0.703 2.816 0.253-0.93z" inkscape:connector-curvature="0"/>
      <path id="path174" style="fill-rule:evenodd;fill:#66943b" d="m11.328 23.247c-0.172-1.363-0.246-2.312-0.223-2.847 0.043-0.852 0.297-1.77 0.766-2.75 0.598-1.258 0.984-1.953 1.152-2.082l0.098-0.321c0-0.234-0.129-0.468-0.383-0.703-0.023 0.172-0.054 0.34-0.097 0.512-0.086 0.32-0.223 0.617-0.414 0.898-0.665 1-1.114 1.875-1.348 2.621-0.211 0.704-0.191 1.653 0.066 2.848 0.106 0.555 0.141 1.676 0.094 3.363h0.195l0.125-0.195c0.067-0.234 0.055-0.684-0.031-1.344z" inkscape:connector-curvature="0"/>
      <path id="path176" style="fill-rule:evenodd;fill:#629642" d="m12.961 26.001h0.351c0.235-0.066 0.407-0.226 0.512-0.48 0.192-0.516 0.129-0.992-0.191-1.442-0.149-0.215-0.332-0.375-0.543-0.48 0.129-0.258 0.062-0.555-0.192-0.895-0.468-0.64-1.003-0.941-1.601-0.898-0.043-0.106-0.211-0.211-0.512-0.317-0.301-0.128-0.543-0.054-0.738 0.223l-0.254-0.16c-0.172-0.086-0.457 0.074-0.863 0.48l-0.129-0.543c-0.106-0.171-0.375-0.32-0.801-0.449l0.031-0.258c0-0.191-0.062-0.339-0.191-0.445-0.235-0.172-0.5-0.117-0.801 0.156 0-0.296-0.168-0.511-0.512-0.636-0.211-0.086-0.363-0.11-0.445-0.067l-0.098 0.098-0.062-0.129c-0.067-0.086-0.172-0.184-0.32-0.289-0.258-0.148-0.543-0.18-0.864-0.094l-0.195-0.258c-0.105-0.105-0.266-0.16-0.477-0.16-0.171 0.024-0.332 0.078-0.48 0.16-0.258-0.211-0.5-0.222-0.738-0.031-0.149 0.129-0.246 0.246-0.286 0.352l-0.035 0.129c-0.445-0.129-0.82 0-1.117 0.382-0.172 0.235-0.234 0.481-0.191 0.739l0.093 0.316c-0.406 0.067-0.691 0.281-0.863 0.641-0.129 0.234-0.097 0.523 0.094 0.863l0.289 0.449c-0.574-0.043-0.852 0.192-0.832 0.703 0.023 0.301 0.129 0.578 0.32 0.832l0.321 0.289c-0.106 0.063-0.192 0.172-0.254 0.321-0.129 0.297-0.086 0.629 0.125 0.992 0.191 0.363 0.461 0.566 0.8 0.605 0.172 0 0.321-0.019 0.45-0.062-0.043 0.215 0.031 0.523 0.222 0.93 0.129 0.234 0.352 0.445 0.672 0.636l0.481 0.227c-0.149 0.406-0.02 0.758 0.386 1.055 0.403 0.277 0.715 0.277 0.926 0-0.043 0.234 0.149 0.511 0.578 0.832 0.446 0.3 0.754 0.289 0.926-0.032 0 0.063 0.031 0.137 0.098 0.223 0.125 0.172 0.328 0.32 0.605 0.449 0.43 0.211 0.813 0.074 1.153-0.418l0.16 0.129c0.172 0.086 0.426 0.137 0.769 0.16 0.532 0.043 0.907-0.097 1.121-0.418l0.414 0.129c0.34 0.067 0.661 0.012 0.961-0.16 0.618-0.34 0.864-0.789 0.735-1.344l0.226-0.062c0.168-0.067 0.317-0.215 0.446-0.449 0.3-0.598 0.257-1.086-0.129-1.473l0.386-0.223c0.149-0.144 0.168-0.425 0.063-0.828z" inkscape:connector-curvature="0"/>
      <path id="path178" style="fill-rule:evenodd;fill:#a5db72" d="m8.227 19.122c0.148-0.129-0.036-0.097-0.547 0.094-0.489 0.191-0.715 0.332-0.672 0.418 0.043 0.063 0.234 0.02 0.578-0.129 0.32-0.148 0.531-0.277 0.641-0.383z" inkscape:connector-curvature="0"/>
      <path id="path180" style="fill-rule:evenodd;fill:#a5db72" d="m8.863 19.439c-0.211 0.172-0.371 0.3-0.476 0.386-0.196 0.149-0.227 0.223-0.098 0.223 0.043 0 0.234-0.086 0.574-0.258 0.258-0.105 0.387-0.093 0.387 0.035 0.043 0.403 0.137 0.5 0.285 0.286 0.11-0.149 0.055-0.329-0.16-0.543-0.211-0.192-0.383-0.235-0.512-0.129z" inkscape:connector-curvature="0"/>
      <path id="path182" style="fill-rule:evenodd;fill:#a5db72" d="m9.219 20.849c-0.172 0.129-0.321 0.265-0.449 0.414-0.129 0.152-0.118 0.203 0.031 0.16 0.172-0.039 0.375-0.168 0.609-0.383 0.254-0.211 0.395-0.383 0.414-0.511 0.024-0.106 0-0.129-0.062-0.063-0.321 0.234-0.504 0.359-0.543 0.383z" inkscape:connector-curvature="0"/>
      <path id="path184" style="fill-rule:evenodd;fill:#a5db72" d="m10.145 16.818c-0.129 0.191-0.266 0.519-0.415 0.992-0.171 0.488-0.269 0.765-0.289 0.832-0.086 0.168-0.148 0.359-0.191 0.574-0.023 0.215 0.008 0.258 0.094 0.129 0.152-0.172 0.48-0.973 0.992-2.402 0.492-1.129 0.426-1.172-0.191-0.125z" inkscape:connector-curvature="0"/>
      <path id="path186" style="fill-rule:evenodd;fill:#a5db72" d="m11.137 16.943c-0.278 0.429-0.5 0.961-0.672 1.601-0.043 0.172 0.019 0.129 0.191-0.129 0.172-0.254 0.332-0.554 0.481-0.894l0.801-1.633c-0.043-0.191-0.309 0.16-0.801 1.055z" inkscape:connector-curvature="0"/>
      <path id="path188" style="fill-rule:evenodd;fill:#507a36" d="m4.801 29.583-0.129-0.32v0.031c-0.129 0.067-0.254 0.098-0.383 0.098l-0.223 0.32 0.192 0.16c0.426 0.34 0.734 0.364 0.926 0.063-0.168-0.106-0.297-0.223-0.383-0.352z" inkscape:connector-curvature="0"/>
      <path id="path190" style="fill-rule:evenodd;fill:#507a36" d="m13.023 22.642c-0.234-0.387-0.585-0.684-1.054-0.899l-0.223 0.192 0.32 0.32 0.063 0.129c0.234 0.063 0.414 0.203 0.543 0.414 0.215 0.301 0.226 0.609 0.031 0.93 0.172 0.062 0.32 0.179 0.449 0.351 0.11 0.192 0.141 0.395 0.098 0.61-0.043 0.191-0.152 0.34-0.32 0.445-0.258 0.129-0.512 0.129-0.77 0 0.129 0.215 0.16 0.438 0.098 0.672-0.043 0.238-0.172 0.406-0.387 0.516-0.082 0.062-0.211 0.093-0.383 0.093 0.149 0.215 0.192 0.449 0.129 0.707-0.043 0.254-0.183 0.434-0.418 0.543-0.019 0.02-0.094 0.055-0.222 0.094 0.085 0.301 0.019 0.578-0.192 0.832 0.106 0.234 0.129 0.461 0.063 0.672-0.063 0.215-0.192 0.375-0.383 0.48-0.469 0.258-0.887 0.161-1.25-0.285l-0.192 0.192c-0.148 0.082-0.339 0.074-0.574-0.032-0.066 0.106-0.152 0.192-0.258 0.254-0.191 0.106-0.394 0.129-0.605 0.063-0.238-0.063-0.418-0.192-0.547-0.383l-0.062-0.16-0.192-0.031c-0.066 0.171-0.172 0.289-0.32 0.351-0.301 0.172-0.61 0.172-0.93 0 0.086 0.258 0.301 0.481 0.641 0.672 0.426 0.234 0.832 0.129 1.215-0.32l0.16 0.129c0.152 0.105 0.394 0.179 0.738 0.222 0.531 0.067 0.914-0.051 1.152-0.351l0.414 0.16c0.321 0.086 0.641 0.055 0.961-0.094 0.641-0.277 0.926-0.695 0.864-1.25l0.222-0.062c0.172-0.067 0.321-0.204 0.45-0.418 0.343-0.555 0.343-1.036 0-1.438l0.418-0.226c0.148-0.129 0.191-0.407 0.128-0.832l0.321 0.031c0.234-0.02 0.414-0.16 0.543-0.414 0.254-0.516 0.234-0.992-0.063-1.442-0.152-0.215-0.332-0.382-0.547-0.511 0.149-0.254 0.106-0.567-0.129-0.926z" inkscape:connector-curvature="0"/>
      <path id="path192" style="fill-rule:evenodd;fill:#507a36" d="m5.633 28.017c0.105 0.129 0.234 0.246 0.383 0.351 0.343 0.211 0.683 0.223 1.023 0.032 0.578-0.297 0.793-0.575 0.641-0.832l0.351 0.16c0.301 0.086 0.598 0.054 0.899-0.098 0.492-0.273 0.66-0.543 0.511-0.797l0.418-0.035c0.317-0.086 0.543-0.266 0.672-0.543 0.211-0.469 0.297-0.746 0.254-0.832l0.192 0.191c0.191 0.086 0.418 0.043 0.671-0.125 0.45-0.257 0.555-0.609 0.321-1.058l0.191-0.16c0.11-0.192 0.117-0.438 0.035-0.735-0.129-0.468-0.3-0.746-0.515-0.832 0.258 0.618 0.234 0.969-0.063 1.055-0.191 0.043-0.34 0.066-0.449 0.066h-0.125c0.297 0.489 0.328 0.809 0.094 0.957-0.149 0.086-0.321 0.141-0.512 0.161l-0.223-0.032c0.063 0.661-0.16 1.067-0.672 1.215-0.343 0.11-0.566 0.078-0.671-0.094-0.02-0.027-0.036-0.062-0.051-0.097 0.058 0.566-0.141 0.906-0.59 1.023l-0.738 0.196c-0.168 0.359-0.489 0.628-0.957 0.796-0.301 0.086-0.567 0.129-0.801 0.129l-0.289-0.062z" inkscape:connector-curvature="0"/>
      <path id="path194" style="fill-rule:evenodd;fill:#507a36" d="m4.863 25.103 0.227 0.16c0.168 0.109 0.371 0.117 0.605 0.031 0.364-0.125 0.555-0.316 0.578-0.574 0.086 0.129 0.192 0.246 0.321 0.352 0.277 0.191 0.586 0.214 0.926 0.062 0.535-0.234 0.757-0.437 0.671-0.605l0.352 0.16c0.281 0.082 0.516 0.05 0.707-0.098 0.297-0.215 0.414-0.492 0.352-0.832 0.062 0.086 0.136 0.16 0.222 0.223 0.192 0.109 0.375 0.074 0.543-0.094 0.278-0.277 0.356-0.547 0.227-0.801l0.445 0.129c0.32 0.063 0.504-0.012 0.547-0.227 0.082-0.234 0.008-0.488-0.227-0.765-0.211-0.258-0.433-0.395-0.671-0.418l-0.383-0.063c-0.258-0.32-0.567-0.418-0.93-0.289-0.234 0.086-0.414 0.223-0.543 0.418l-0.16 0.254c0.875-0.34 1.281-0.394 1.219-0.16l-0.098 0.352c0.492-0.297 0.769-0.321 0.832-0.063 0.02 0.172-0.043 0.32-0.191 0.449l-0.227 0.16c0.043 0.403-0.019 0.629-0.191 0.672-0.106 0.02-0.254 0.008-0.446-0.035l-0.258-0.094c0.11 0.235 0.012 0.438-0.289 0.61-0.191 0.105-0.414 0.148-0.671 0.125l-0.321-0.063c0.153 0.254 0.024 0.438-0.383 0.543-0.253 0.067-0.562 0.024-0.925-0.125l-0.45-0.226c-0.062 0.277-0.265 0.468-0.609 0.578l-0.801 0.254z" inkscape:connector-curvature="0"/>
      <path id="path196" style="fill-rule:evenodd;fill:#507a36" d="m2.879 21.872 0.351 0.16c0.258 0.086 0.473 0.043 0.641-0.128 0.277-0.278 0.352-0.52 0.227-0.735l0.351-0.129c0.211-0.129 0.297-0.308 0.254-0.543-0.062-0.363-0.203-0.566-0.414-0.609l0.223-0.16c0.129-0.129 0.172-0.254 0.129-0.383-0.086-0.191-0.246-0.309-0.481-0.352 0.426-0.277 0.481-0.418 0.16-0.418-0.191 0-0.394 0.032-0.609 0.098l-0.223 0.094c0.254 0.066 0.332 0.14 0.223 0.226l-0.254 0.094c0.488-0.019 0.723 0.067 0.703 0.258-0.019 0.125-0.074 0.246-0.16 0.352l-0.16 0.16c0.34 0.191 0.48 0.402 0.418 0.636-0.043 0.153-0.141 0.289-0.289 0.418l-0.227 0.129c0.129 0.235 0.055 0.426-0.222 0.574l-0.641 0.258z" inkscape:connector-curvature="0"/>
      <path id="path198" style="fill-rule:evenodd;fill:#507a36" d="m5.441 25.009c0.297-0.066 0.575-0.16 0.832-0.289 0.426-0.215 0.606-0.531 0.543-0.961l0.258 0.035c0.192-0.023 0.403-0.109 0.637-0.258 0.387-0.234 0.449-0.511 0.195-0.832l0.125-0.129c0.067-0.125 0.098-0.308 0.098-0.543 0.023-0.363-0.137-0.628-0.481-0.8l0.192-0.223c0.152-0.172 0.098-0.457-0.16-0.863-0.125-0.129-0.36-0.074-0.703 0.16 0.152-0.067 0.312-0.043 0.48 0.062 0.172 0.129 0.055 0.383-0.352 0.77 0.149 0.191 0.247 0.414 0.29 0.672 0.019 0.148-0.067 0.265-0.258 0.351l-0.289 0.063c0.257 0.258 0.363 0.543 0.32 0.863-0.02 0.192-0.199 0.27-0.543 0.227l-0.543-0.129c0.086 0.383-0.023 0.703-0.32 0.957-0.172 0.152-0.395 0.215-0.672 0.195l-0.352-0.098-0.191 0.418c-0.086 0.192-0.277 0.321-0.578 0.383l-0.446 0.063 0.637 0.191c0.449 0.129 0.75 0.055 0.899-0.222l0.382-0.063z" inkscape:connector-curvature="0"/>
      <path id="path200" style="fill-rule:evenodd;fill:#76b34f" d="m1.184 20.818c-0.168 0.019-0.286 0.125-0.352 0.32-0.086 0.191-0.074 0.351 0.031 0.48 0.172 0.297 0.395 0.254 0.672-0.129 0.11-0.191 0.129-0.351 0.067-0.48-0.086-0.152-0.227-0.215-0.418-0.191z" inkscape:connector-curvature="0"/>
      <path id="path202" style="fill-rule:evenodd;fill:#76b34f" d="m1.535 23.759c0.32 0.129 0.555 0.109 0.707-0.062l0.383-0.383 0.254-0.192c0.172-0.129 0.246-0.226 0.226-0.289-0.066-0.129-0.148-0.234-0.257-0.32-0.082 0.254-0.223 0.363-0.414 0.32l-0.258-0.031c-0.149 0.148-0.328 0.211-0.543 0.191l-0.321-0.066-0.382 0.066-0.289-0.289c-0.192 0.02-0.332 0.129-0.414 0.321-0.11 0.211-0.079 0.406 0.093 0.574 0.149 0.172 0.332 0.203 0.543 0.098 0.11-0.043 0.196-0.11 0.258-0.192 0.129 0.106 0.266 0.192 0.414 0.254z" inkscape:connector-curvature="0"/>
      <path id="path204" style="fill-rule:evenodd;fill:#76b34f" d="m3.266 19.345c-0.129 0-0.266 0.043-0.418 0.129l-0.192 0.125c-0.062-0.168-0.211-0.203-0.449-0.094-0.168 0.063-0.316 0.149-0.445 0.254-0.129 0.148-0.141 0.277-0.032 0.383 0.106 0.086 0.223 0.117 0.352 0.097 0.063-0.019 0.117-0.042 0.16-0.062-0.363 0.531-0.418 0.852-0.16 0.957 0.168 0.066 0.32 0.055 0.445-0.031 0.067-0.043 0.118-0.094 0.161-0.16 0 0.109 0.011 0.191 0.035 0.257 0.062 0.168 0.168 0.192 0.316 0.063 0.258-0.191 0.313-0.438 0.16-0.734l0.16 0.062c0.11 0.02 0.172-0.043 0.196-0.191 0.039-0.278-0.024-0.438-0.196-0.481 0.129-0.363 0.098-0.555-0.093-0.574z" inkscape:connector-curvature="0"/>
      <path id="path206" style="fill-rule:evenodd;fill:#76b34f" d="m4.609 23.888c0.192 0.043 0.383-0.02 0.575-0.191 0.277-0.297 0.386-0.575 0.32-0.833l0.449-0.062c0.277-0.066 0.395-0.195 0.352-0.383-0.063-0.195-0.235-0.312-0.512-0.355-0.297-0.039-0.469 0-0.512 0.129l-0.129 0.48c0.024 0.277-0.093 0.481-0.351 0.609l-0.672 0.348c-0.024 0.129-0.16 0.195-0.418 0.195l-0.445 0.032c0 0.129 0.007 0.254 0.031 0.382 0.062 0.235 0.203 0.321 0.414 0.254 0.32-0.105 0.547-0.339 0.672-0.703l0.226 0.098z" inkscape:connector-curvature="0"/>
      <path id="path208" style="fill-rule:evenodd;fill:#76b34f" d="m4.738 21.2c-0.152 0.043-0.258 0.129-0.32 0.254-0.086 0.153-0.086 0.27 0 0.352 0.105 0.109 0.254 0.129 0.445 0.066 0.215-0.066 0.344-0.191 0.387-0.383 0.043-0.234 0.02-0.375-0.066-0.417-0.063-0.043-0.211 0-0.446 0.128z" inkscape:connector-curvature="0"/>
      <path id="path210" style="fill-rule:evenodd;fill:#76b34f" d="m4.258 22.29c-0.153 0-0.246 0.125-0.289 0.383-0.043 0.234 0.043 0.328 0.258 0.285 0.234-0.043 0.351-0.168 0.351-0.383 0.02-0.214-0.086-0.308-0.32-0.285z" inkscape:connector-curvature="0"/>
      <path id="path212" style="fill-rule:evenodd;fill:#76b34f" d="m6.785 21.169c-0.215-0.129-0.383-0.109-0.512 0.063-0.128 0.152-0.148 0.289-0.066 0.418 0.109 0.105 0.301 0.082 0.578-0.067 0.254-0.129 0.254-0.265 0-0.414z" inkscape:connector-curvature="0"/>
      <path id="path214" style="fill-rule:evenodd;fill:#76b34f" d="m5.281 19.857c-0.191 0.019-0.258 0.148-0.191 0.382 0.086 0.215 0.203 0.309 0.351 0.29 0.512 0 0.844 0.05 0.993 0.16l0.128 0.093c0.235-0.382 0.235-0.617 0-0.703-0.152-0.066-0.32-0.066-0.515 0l-0.223 0.094c-0.019-0.254-0.203-0.359-0.543-0.316z" inkscape:connector-curvature="0"/>
      <path id="path216" style="fill-rule:evenodd;fill:#76b34f" d="m2.527 25.583c0.235-0.062 0.344-0.234 0.321-0.511l0.191-0.094c0.129-0.067 0.152-0.153 0.066-0.258-0.105-0.191-0.257-0.172-0.449 0.066-0.086-0.066-0.211-0.086-0.383-0.066l-0.449 0.191c-0.086-0.297-0.265-0.437-0.543-0.414-0.148 0.02-0.308 0.106-0.48 0.254-0.192 0.192-0.215 0.363-0.063 0.512 0.125 0.148 0.328 0.191 0.606 0.129 0.152-0.043 0.277-0.098 0.386-0.16 0.063 0.062 0.149 0.14 0.254 0.222 0.215 0.129 0.395 0.172 0.543 0.129z" inkscape:connector-curvature="0"/>
      <path id="path218" style="fill-rule:evenodd;fill:#76b34f" d="m4.703 26.322 0.289 0.031c0.192 0 0.278-0.055 0.258-0.16 0-0.129-0.086-0.258-0.258-0.383-0.168-0.129-0.297-0.16-0.383-0.098l-0.418 0.481c-0.339-0.086-0.562-0.118-0.671-0.094l-0.286 0.254c-0.343-0.297-0.757-0.328-1.25-0.094-0.172 0.063-0.214 0.234-0.129 0.512 0.086 0.297 0.29 0.457 0.61 0.48 0.512 0.02 0.777-0.183 0.801-0.609l0.48 0.191c0.32 0.106 0.543 0.098 0.672-0.031 0.168-0.195 0.266-0.355 0.285-0.48z" inkscape:connector-curvature="0"/>
      <path id="path220" style="fill-rule:evenodd;fill:#76b34f" d="m5.793 27.697c0.301 0.128 0.703-0.106 1.215-0.704l0.418-0.097c0.32-0.106 0.566-0.278 0.734-0.512 0.195-0.297 0.172-0.492-0.062-0.578-0.211-0.106-0.457-0.02-0.735 0.258l-0.64 0.734c-0.086 0.066-0.227 0.117-0.418 0.16-0.278 0.043-0.481 0.153-0.606 0.321-0.152 0.191-0.121 0.332 0.094 0.418z" inkscape:connector-curvature="0"/>
      <path id="path222" style="fill-rule:evenodd;fill:#76b34f" d="m6.242 25.775c-0.172 0.066-0.301 0.203-0.387 0.418-0.082 0.191-0.05 0.3 0.098 0.32 0.149 0 0.297-0.074 0.449-0.223 0.125-0.129 0.211-0.246 0.254-0.355l0.067-0.223c-0.047-0.043-0.203-0.023-0.481 0.063z" inkscape:connector-curvature="0"/>
      <path id="path224" style="fill-rule:evenodd;fill:#76b34f" d="m8.512 22.993c-0.192 0.106-0.352 0.223-0.481 0.348-0.148 0.152-0.105 0.238 0.129 0.258 0.383 0.023 0.672-0.137 0.863-0.481l0.352 0.032c0.215 0 0.289-0.075 0.227-0.223-0.106-0.406-0.266-0.543-0.481-0.418l-0.289 0.164c-0.191-0.191-0.352-0.223-0.48-0.098-0.082 0.086-0.082 0.184 0 0.289l0.16 0.129z" inkscape:connector-curvature="0"/>
      <path id="path226" style="fill-rule:evenodd;fill:#76b34f" d="m9.441 24.88c-0.148 0.043-0.277 0.16-0.382 0.352-0.11 0.191-0.055 0.3 0.16 0.32 0.254 0.043 0.488-0.109 0.703-0.449 0.191-0.297 0.031-0.371-0.481-0.223z" inkscape:connector-curvature="0"/>
      <path id="path228" style="fill-rule:evenodd;fill:#76b34f" d="m3.457 27.728c-0.215 0.062-0.363 0.191-0.449 0.383-0.086 0.234 0.012 0.375 0.289 0.418 0.383 0.043 0.648-0.067 0.801-0.321l0.476 0.063c0.321 0 0.473-0.117 0.449-0.352-0.043-0.34-0.414-0.375-1.121-0.094-0.062-0.109-0.211-0.14-0.445-0.097z" inkscape:connector-curvature="0"/>
      <path id="path230" style="fill-rule:evenodd;fill:#76b34f" d="m5.824 28.818c-0.297 0-0.5 0.093-0.605 0.285-0.11 0.191-0.043 0.332 0.191 0.418 0.278 0.062 0.543-0.043 0.797-0.321 0.258-0.277 0.129-0.406-0.383-0.382z" inkscape:connector-curvature="0"/>
      <path id="path232" style="fill-rule:evenodd;fill:#76b34f" d="m7.555 29.583c0.297-0.129 0.468-0.328 0.511-0.609l0.321 0.195c0.234 0.106 0.39 0.094 0.476-0.035l0.196-0.352 0.476 0.067c0.32-0.024 0.492-0.16 0.512-0.418 0.023-0.297-0.031-0.524-0.156-0.672-0.129-0.129-0.289-0.137-0.481-0.031-0.152 0.086-0.289 0.215-0.418 0.383l-0.129 0.226c0-0.195-0.16-0.234-0.476-0.129-0.196 0.086-0.332 0.192-0.418 0.321l-0.063 0.16c-0.109-0.043-0.312 0.043-0.609 0.254-0.149 0.109-0.192 0.265-0.129 0.48 0.043 0.215 0.172 0.27 0.387 0.16z" inkscape:connector-curvature="0"/>
      <path id="path234" style="fill-rule:evenodd;fill:#76b34f" d="m10.594 26.802c-0.192 0.02-0.332 0.168-0.418 0.445-0.082 0.258-0.031 0.375 0.16 0.352 0.258-0.043 0.469-0.199 0.641-0.477 0.171-0.281 0.043-0.386-0.383-0.32z" inkscape:connector-curvature="0"/>
      <path id="path236" style="fill-rule:evenodd;fill:#eddd82" d="m22.207 29.2-1.277 0.641v2.207l1.758 0.352 1.058-1.184-1.058-1.023-0.481-0.993z" inkscape:connector-curvature="0"/>
      <path id="path238" style="fill-rule:evenodd;fill:#bfb05a" d="m23.746 31.216c-1.773-3.074-2.934-5.547-3.488-7.426-0.363-1.215-0.727-3.07-1.09-5.566-0.254-1.793-0.438-3.305-0.543-4.543l-0.191-2.563-0.641-0.605-0.289 0.574c0.152 2.047 0.32 4.117 0.516 6.207 0.339 4.16 0.562 6.293 0.671 6.403 0.168 0.171 0.754 1.503 1.758 4l0.863 2.496 2.434 1.023z" inkscape:connector-curvature="0"/>
      <path id="path240" style="fill-rule:evenodd;fill:#e3d276" d="m20.031 29.775c0.364 1.023 0.664 1.781 0.899 2.273l1.343-1.473c-1.195-2.132-2.05-4.265-2.562-6.398-0.66-2.754-1.172-5.855-1.535-9.313-0.192-1.73-0.321-3.179-0.383-4.351l-0.863 0.125c0 0.918 0.043 2.101 0.129 3.555 0.211 2.921 0.574 5.707 1.086 8.347 0.554 2.754 1.183 5.168 1.886 7.235z" inkscape:connector-curvature="0"/>
      <path id="path242" style="fill-rule:evenodd;fill:#e7f77e" d="m17.41 34.958c0.043-4.437 0.149-7.773 0.32-10.015 0.168-2.239 0.18-6.954 0.032-14.145l-0.61-0.254-0.578 0.766-1.66 21.953 0.992 1.922 1.504-0.227z" inkscape:connector-curvature="0"/>
      <path id="path244" style="fill-rule:evenodd;fill:#94c908" d="m17.121 21.392c0.149-2.711 0.223-6.293 0.223-10.75l-0.192-0.098-0.578 0.77-1.148 22.941 0.48 0.93 0.254-0.063 0.961-13.73z" inkscape:connector-curvature="0"/>
      <g id="g246">
        <g id="g248">
          <g id="g254">
            <path id="path266" style="fill-rule:evenodd;fill:url(#linearGradient256)" d="m15.008 34.958c0.492 0.172 0.789 0.246 0.898 0.227 0.446-6.082 0.746-10.379 0.895-12.899 0.148-2.257 0.265-6.175 0.351-11.742-0.062 0.043-0.257 0.086-0.578 0.129-0.191 0.02-0.34 0.039-0.445 0.063l-0.067 0.062c0.024 4.313-0.234 9.207-0.765 14.688-0.32 3.074-0.75 6.113-1.281 9.121l0.992 0.351z" inkscape:connector-curvature="0"/>
          </g>
        </g>
      </g>
      <path id="path268" style="fill-rule:evenodd;fill:#e7f77e" d="m18.242 29.904 1.246 0.097 0.672-1.664-2.558-18.242-0.512-0.606-0.512 0.223c0.317 6.016 0.606 9.961 0.863 11.84 0.254 1.855 0.524 4.641 0.801 8.352z" inkscape:connector-curvature="0"/>
      <path id="path270" style="fill-rule:evenodd;fill:#94c908" d="m17.73 18.544c0.895 6.613 1.407 10.422 1.536 11.422l0.222 0.035 0.321-0.801-2.207-19.105-0.516-0.606-0.156 0.063c0.168 2.922 0.437 5.922 0.8 8.992z" inkscape:connector-curvature="0"/>
      <g id="g272">
        <g id="g274">
          <g id="g280">
            <path id="path292" style="fill-rule:evenodd;fill:url(#linearGradient282)" d="m19.488 30.001 0.703-0.226 0.77-0.352c-0.598-2.496-1.109-5.012-1.535-7.551-0.75-4.566-1.227-8.648-1.442-12.254-0.019-0.043-0.172-0.066-0.449-0.066l-0.449-0.063c0.363 4.629 0.672 7.895 0.93 9.793l1.472 10.719z" inkscape:connector-curvature="0"/>
          </g>
        </g>
      </g>
      <path id="path294" style="fill-rule:evenodd;fill:#f7aa36" d="m10.754 30.032 1.277 0.29 1.059-1.504 0.734-18.723-0.418-0.672-0.574 0.129c-0.809 6.078-1.258 10.07-1.344 11.969-0.062 1.898-0.308 4.734-0.734 8.511z" inkscape:connector-curvature="0"/>
      <path id="path296" style="fill-rule:evenodd;fill:#f09308" d="m12.352 18.575-0.512 11.711 0.191 0.036 0.512-0.739 1.281-19.488-0.414-0.672-0.191 0.035c-0.449 3.946-0.739 6.985-0.867 9.117z" inkscape:connector-curvature="0"/>
      <path id="path298" style="fill-rule:evenodd;fill:#d4850f" d="m12.031 30.322 1.699-0.29c-0.171-2.601-0.234-5.214-0.191-7.839 0.063-4.672 0.316-8.832 0.766-12.481 0-0.043-0.137-0.094-0.414-0.16l-0.481-0.129c-0.492 4.695-0.781 8.012-0.867 9.953l-0.512 10.946z" inkscape:connector-curvature="0"/>
      <path id="path300" style="fill-rule:evenodd;fill:#bf7506" d="m13.824 15.314 0.192-2.465-0.926-0.352-0.227 2.496c0.492 0.149 0.813 0.254 0.961 0.321z" inkscape:connector-curvature="0"/>
      <path id="path302" style="fill-rule:evenodd;fill:#bf7506" d="m12.641 17.841-0.129 2.047c0.386 0.109 0.738 0.246 1.058 0.418l0.094-2.082c-0.555-0.215-0.894-0.34-1.023-0.383z" inkscape:connector-curvature="0"/>
      <path id="path304" style="fill-rule:evenodd;fill:#bf7506" d="m12.098 29.04c0.66-0.086 1.183-0.183 1.566-0.289l-0.094-2.113-1.379 0.226-0.093 2.176z" inkscape:connector-curvature="0"/>
      <path id="path306" style="fill-rule:evenodd;fill:#bf7506" d="m13.535 22.575-1.148-0.191-0.067 1.727h1.215v-1.536z" inkscape:connector-curvature="0"/>
      <path id="path308" style="fill-rule:evenodd;fill:#f7aa36" d="m14.434 32.4 1.597 0.222 1.09-1.758-1.633-20.769-0.609-0.734-0.703 0.222c-0.172 6.785-0.172 11.235 0 13.344 0.148 2.113 0.234 5.27 0.258 9.473z" inkscape:connector-curvature="0"/>
      <path id="path310" style="fill-rule:evenodd;fill:#f09308" d="m14.848 19.599c0.086 1.344 0.394 5.676 0.929 12.992l0.254 0.031 0.547-0.832-1.09-21.726-0.609-0.703-0.223 0.062c0 4.586 0.063 7.981 0.192 10.176z" inkscape:connector-curvature="0"/>
      <path id="path312" style="fill-rule:evenodd;fill:#d4850f" d="m16.223 32.622c0.191-0.019 0.461-0.074 0.8-0.16l1.055-0.32c-0.551-2.856-0.988-5.738-1.308-8.637-0.555-5.207-0.801-9.836-0.739-13.887-0.019-0.066-0.203-0.117-0.543-0.16l-0.609-0.097c0.043 5.25 0.141 8.949 0.289 11.105l0.863 12.16h0.192v-0.004z" inkscape:connector-curvature="0"/>
      <path id="path314" style="fill-rule:evenodd;fill:#bf7506" d="m16.191 15.857-0.093-2.754-1.184-0.317 0.063 2.817c0.597 0.105 1.003 0.187 1.214 0.254z" inkscape:connector-curvature="0"/>
      <path id="path316" style="fill-rule:evenodd;fill:#bf7506" d="m15.199 21.04c0.535 0.086 0.992 0.203 1.379 0.352l-0.191-2.305c-0.473-0.148-0.91-0.254-1.313-0.32 0.043 1.047 0.074 1.613 0.094 1.695l0.031 0.578z" inkscape:connector-curvature="0"/>
      <path id="path318" style="fill-rule:evenodd;fill:#bf7506" d="m15.938 31.185c0.746-0.129 1.374-0.278 1.886-0.449l-0.383-2.336-1.695 0.382 0.192 2.403z" inkscape:connector-curvature="0"/>
      <path id="path320" style="fill-rule:evenodd;fill:#bf7506" d="m16.832 23.919-1.441-0.129 0.129 1.953 1.503-0.125-0.191-1.699z" inkscape:connector-curvature="0"/>
      <path id="path322" style="fill-rule:evenodd;fill:#eddd82" d="m25.152 27.122 0.993-0.961-1.122-0.8-0.511-0.77-1.246 0.578 0.125 1.758 1.761 0.195z" inkscape:connector-curvature="0"/>
      <path id="path324" style="fill-rule:evenodd;fill:#bfb05a" d="m23.648 25.423 2.497 0.738c-1.918-2.414-3.211-4.363-3.872-5.859-0.425-0.957-0.875-2.43-1.343-4.414-0.387-1.535-0.653-2.754-0.801-3.649l-0.352-2.015-0.64-0.481-0.258 0.481c0.258 1.64 0.535 3.297 0.832 4.961 0.555 3.324 0.887 5.031 0.992 5.117 0.172 0.129 0.832 1.184 1.985 3.168l0.96 1.953z" inkscape:connector-curvature="0"/>
      <path id="path326" style="fill-rule:evenodd;fill:#e3d276" d="m23.391 26.927 1.25-1.246c-1.301-1.664-2.262-3.34-2.879-5.024-0.789-2.199-1.461-4.671-2.02-7.425-0.277-1.387-0.476-2.551-0.605-3.489l-0.864 0.129c0.039 0.746 0.149 1.696 0.317 2.848 0.363 2.348 0.875 4.578 1.539 6.687 0.68 2.176 1.43 4.086 2.238 5.727 0.406 0.813 0.746 1.41 1.024 1.793z" inkscape:connector-curvature="0"/>
      <path id="path328" style="fill-rule:evenodd;fill:#ffffff" d="m18.496 9.743 0.578-0.093c0.192 0.043 0.328 0.093 0.414 0.16-0.062-0.172-0.215-0.258-0.449-0.258-0.148 0-0.285 0.031-0.414 0.098l-0.129 0.093z" inkscape:connector-curvature="0"/>
      <path id="path330" style="fill-rule:evenodd;fill:#ffffff" d="m16.672 9.552 0.512-0.16h0.511c-0.297-0.129-0.511-0.16-0.636-0.094l-0.387 0.254z" inkscape:connector-curvature="0"/>
      <path id="path332" style="fill-rule:evenodd;fill:#ffffff" d="m14.945 9.263c-0.254-0.027-0.457-0.016-0.609 0.031l-0.289 0.098-0.606-0.16c-0.086-0.02-0.246 0.023-0.48 0.129l-0.289 0.128 0.449-0.16c0.234 0 0.418 0.02 0.543 0.063l0.418 0.097 0.641-0.195c0.074-0.019 0.148-0.031 0.222-0.031z" inkscape:connector-curvature="0"/>
      <path id="path334" style="fill-rule:evenodd;fill:#ffffff" d="m11.266 10.29 0.574 0.188c0-0.125-0.211-0.199-0.641-0.223l-0.992 0.129 0.16 0.094 0.899-0.188z" inkscape:connector-curvature="0"/>
      <path id="path336" style="fill-rule:evenodd;fill:#ffffff" d="m8.48 17.423 1.25-0.254 0.735-5.379c0.492-3.84 0.703-6.336 0.64-7.484-0.109-2.008-0.98 2.367-2.625 13.117z" inkscape:connector-curvature="0"/>
      <g id="g338">
        <g id="g354" mask="url(#mask346)">
          <g id="g366">
            <g id="g368" clip-path="url(#clipPath358)">
              <g id="g370" transform="translate(0 -.76832)">
                <g id="g374">
                  <g id="g376" clip-path="url(#clipPath362)">
                    <g id="g378">
                      <path id="path380" style="fill-rule:evenodd;fill:#ffffff" d="m7.305 19.078c-0.063-0.191 0.011-0.394 0.222-0.605 0.43-0.426 1.356-0.684 2.785-0.77 1.153-0.062 2.731-0.172 4.735-0.32 1.578-0.063 2.785 0.023 3.617 0.258 1.324 0.363 2.613 0.82 3.871 1.375l-2.656-15.84c-0.488-0.215-1.098-0.414-1.824-0.61-1.45-0.402-2.77-0.562-3.965-0.476-1.899 0.125-3.36 0.476-4.387 1.055l-3.101 15.839 0.703 0.094z" inkscape:connector-curvature="0"/>
                    </g>
                  </g>
                </g>
              </g>
            </g>
          </g>
        </g>
      </g>
      <path id="path382" style="fill-rule:evenodd;fill:#ccf6ff" d="m10.207 16.56c-1.363 0.258-2.375 0.597-3.039 1.023l2.656-14.047v-0.066c0-0.426 0.481-0.777 1.442-1.055 0.961-0.297 2.121-0.449 3.488-0.449 1.363 0 2.527 0.152 3.484 0.449 0.961 0.278 1.442 0.629 1.442 1.055v0.066l2.625 13.918c-1.559-0.875-4.043-1.312-7.457-1.312-1.684 0.004-3.231 0.14-4.641 0.418zm-3.773 2.015v0.067h0.031v0.062h1.504c0-0.468 0.683-0.875 2.051-1.215 1.363-0.343 3.007-0.515 4.925-0.515 1.922 0 3.563 0.172 4.93 0.515 1.363 0.34 2.047 0.747 2.047 1.215h1.312v-0.062h0.032l-3.039-16.93v-0.062c0-0.45-0.524-0.832-1.571-1.153-1.043-0.32-2.312-0.48-3.808-0.48-1.493 0-2.762 0.16-3.805 0.48-1.047 0.321-1.57 0.703-1.57 1.153v0.062l-3.008 16.738-0.031 0.125z" inkscape:connector-curvature="0"/>
      <path id="path384" style="fill-rule:evenodd;fill:#ffffff" d="m19.457 2.927c0.34-0.277 0.414-0.66 0.223-1.152-0.215-0.489-0.618-0.832-1.215-1.024-1.153-0.34-2.723-0.488-4.703-0.445-1.582 0.039-2.668 0.383-3.266 1.023-0.32 0.364-0.461 0.68-0.418 0.961 0.086 0.34 0.547 0.36 1.379 0.063 0.871-0.258 1.973-0.383 3.293-0.383 1.047 0 1.984 0.082 2.816 0.254 0.813 0.172 1.399 0.406 1.762 0.703h0.129z" inkscape:connector-curvature="0"/>
    </g>
  </g>
<metadata><rdf:RDF><cc:Work><dc:format>image/svg+xml</dc:format><dc:type rdf:resource="http://purl.org/dc/dcmitype/StillImage"/><cc:license rdf:resource="http://creativecommons.org/licenses/publicdomain/"/><dc:publisher><cc:Agent rdf:about="http://openclipart.org/"><dc:title>Openclipart</dc:title></cc:Agent></dc:publisher></cc:Work><cc:License rdf:about="http://creativecommons.org/licenses/publicdomain/"><cc:permits rdf:resource="http://creativecommons.org/ns#Reproduction"/><cc:permits rdf:resource="http://creativecommons.org/ns#Distribution"/><cc:permits rdf:resource="http://creativecommons.org/ns#DerivativeWorks"/></cc:License></rdf:RDF></metadata></svg>
